<?xml version="1.0" encoding="UTF-8" standalone="no"?>
<!DOCTYPE svg PUBLIC "-//W3C//DTD SVG 1.1//EN"
 "http://www.w3.org/Graphics/SVG/1.1/DTD/svg11.dtd">
<!-- Generated by graphviz version 2.40.1 (20161225.0304)
 -->
<!-- Title: G Pages: 1 -->
<svg width="614pt" height="254pt"
 viewBox="0.00 0.00 614.00 254.00" xmlns="http://www.w3.org/2000/svg" xmlns:xlink="http://www.w3.org/1999/xlink">
<g id="graph0" class="graph" transform="scale(1 1) rotate(0) translate(4 250)">
<title>G</title>
<polygon fill="#ffffff" stroke="transparent" points="-4,4 -4,-250 610,-250 610,4 -4,4"/>
<!-- analysis -->
<g id="node1" class="node">
<title>analysis</title>
<text text-anchor="start" x="213.5" y="-233.4" font-family="Bitstream-Vera Sans" font-size="7.00" fill="#000000">analysis</text>
<polygon fill="none" stroke="#000000" points="180,-227 180,-229 278,-229 278,-227 180,-227"/>
<text text-anchor="start" x="182" y="-219.4" font-family="Bitstream-Vera Sans" font-size="7.00" fill="#000000">&#45; id : INTEGER</text>
<text text-anchor="start" x="182" y="-207.4" font-family="Bitstream-Vera Sans" font-size="7.00" fill="#000000">&#45; sequence : INTEGER</text>
<text text-anchor="start" x="182" y="-195.4" font-family="Bitstream-Vera Sans" font-size="7.00" fill="#000000">&#45; detector_type : INTEGER</text>
<text text-anchor="start" x="182" y="-183.4" font-family="Bitstream-Vera Sans" font-size="7.00" fill="#000000">&#45; feature_type : INTEGER</text>
<text text-anchor="start" x="182" y="-171.4" font-family="Bitstream-Vera Sans" font-size="7.00" fill="#000000">&#45; points : INTEGER</text>
<text text-anchor="start" x="182" y="-159.4" font-family="Bitstream-Vera Sans" font-size="7.00" fill="#000000">&#45; observations : INTEGER</text>
<text text-anchor="start" x="182" y="-147.4" font-family="Bitstream-Vera Sans" font-size="7.00" fill="#000000">&#45; error : REAL</text>
<polygon fill="none" stroke="#000000" points="179,-142 179,-242 279,-242 279,-142 179,-142"/>
</g>
<!-- sequence -->
<g id="node2" class="node">
<title>sequence</title>
<text text-anchor="start" x="553.5" y="-150.4" font-family="Bitstream-Vera Sans" font-size="7.00" fill="#000000">sequence</text>
<polygon fill="none" stroke="#000000" points="540.5,-144 540.5,-146 597.5,-146 597.5,-144 540.5,-144"/>
<text text-anchor="start" x="542.5" y="-136.4" font-family="Bitstream-Vera Sans" font-size="7.00" fill="#000000">&#45; id : INTEGER</text>
<text text-anchor="start" x="542.5" y="-124.4" font-family="Bitstream-Vera Sans" font-size="7.00" fill="#000000">&#45; name : TEXT</text>
<polygon fill="none" stroke="#000000" points="539,-119 539,-159 598,-159 598,-119 539,-119"/>
</g>
<!-- analysis&#45;&gt;sequence -->
<g id="edge3" class="edge">
<title>analysis&#45;&gt;sequence</title>
<path fill="none" stroke="#0000ff" d="M287.0426,-189.2161C299.2535,-188.5545 312.053,-187.8046 324,-187 383.6208,-182.9848 399.4652,-188.0184 458,-176 479.8689,-171.5099 503.4166,-164.0157 523.1321,-156.9416"/>
<ellipse fill="none" stroke="#0000ff" cx="527.0104" cy="-155.5262" rx="4" ry="4"/>
<text text-anchor="middle" x="522.768" y="-149.3547" font-family="Bitstream-Vera Sans" font-size="6.00" fill="#000000">+ id</text>
<text text-anchor="middle" x="306.0426" y="-191.4161" font-family="Bitstream-Vera Sans" font-size="6.00" fill="#000000">+ sequence</text>
</g>
<!-- feature_type -->
<g id="node3" class="node">
<title>feature_type</title>
<text text-anchor="start" x="386.5" y="-154.4" font-family="Bitstream-Vera Sans" font-size="7.00" fill="#000000">feature_type</text>
<polygon fill="none" stroke="#000000" points="381,-148 381,-150 438,-150 438,-148 381,-148"/>
<text text-anchor="start" x="383" y="-140.4" font-family="Bitstream-Vera Sans" font-size="7.00" fill="#000000">&#45; id : INTEGER</text>
<text text-anchor="start" x="383" y="-128.4" font-family="Bitstream-Vera Sans" font-size="7.00" fill="#000000">&#45; name : TEXT</text>
<polygon fill="none" stroke="#000000" points="379.5,-123 379.5,-163 438.5,-163 438.5,-123 379.5,-123"/>
</g>
<!-- analysis&#45;&gt;feature_type -->
<g id="edge1" class="edge">
<title>analysis&#45;&gt;feature_type</title>
<path fill="none" stroke="#0000ff" d="M287.4408,-169.7244C312.0505,-162.4033 340.2649,-154.8575 363.3128,-149.4744"/>
<ellipse fill="none" stroke="#0000ff" cx="367.3357" cy="-148.5553" rx="4" ry="4"/>
<text text-anchor="middle" x="363.2353" y="-142.8644" font-family="Bitstream-Vera Sans" font-size="6.00" fill="#000000">+ id</text>
<text text-anchor="middle" x="315.9408" y="-164.9244" font-family="Bitstream-Vera Sans" font-size="6.00" fill="#000000">+ detector_type</text>
</g>
<!-- analysis&#45;&gt;feature_type -->
<g id="edge2" class="edge">
<title>analysis&#45;&gt;feature_type</title>
<path fill="none" stroke="#0000ff" d="M287.4408,-182.4579C312.0505,-176.3803 340.2649,-168.565 363.3128,-161.3998"/>
<ellipse fill="none" stroke="#0000ff" cx="367.4211" cy="-160.1016" rx="4" ry="4"/>
<text text-anchor="middle" x="363.2353" y="-154.0964" font-family="Bitstream-Vera Sans" font-size="6.00" fill="#000000">+ id</text>
<text text-anchor="middle" x="313.9408" y="-177.6579" font-family="Bitstream-Vera Sans" font-size="6.00" fill="#000000">+ feature_type</text>
</g>
<!-- feature_match -->
<g id="node4" class="node">
<title>feature_match</title>
<text text-anchor="start" x="24.5" y="-95.4" font-family="Bitstream-Vera Sans" font-size="7.00" fill="#000000">feature_match</text>
<polygon fill="none" stroke="#000000" points="9,-89 9,-91 89,-91 89,-89 9,-89"/>
<text text-anchor="start" x="11" y="-81.4" font-family="Bitstream-Vera Sans" font-size="7.00" fill="#000000">&#45; id : INTEGER</text>
<text text-anchor="start" x="11" y="-69.4" font-family="Bitstream-Vera Sans" font-size="7.00" fill="#000000">&#45; feature1 : INTEGER</text>
<text text-anchor="start" x="11" y="-57.4" font-family="Bitstream-Vera Sans" font-size="7.00" fill="#000000">&#45; feature2 : INTEGER</text>
<text text-anchor="start" x="11" y="-45.4" font-family="Bitstream-Vera Sans" font-size="7.00" fill="#000000">&#45; count : INTEGER</text>
<text text-anchor="start" x="11" y="-33.4" font-family="Bitstream-Vera Sans" font-size="7.00" fill="#000000">&#45; time : REAL</text>
<text text-anchor="start" x="11" y="-21.4" font-family="Bitstream-Vera Sans" font-size="7.00" fill="#000000">&#45; data : BLOB</text>
<polygon fill="none" stroke="#000000" points="8,-16 8,-104 90,-104 90,-16 8,-16"/>
</g>
<!-- image_feature -->
<g id="node5" class="node">
<title>image_feature</title>
<text text-anchor="start" x="204.5" y="-107.4" font-family="Bitstream-Vera Sans" font-size="7.00" fill="#000000">image_feature</text>
<polygon fill="none" stroke="#000000" points="180,-101 180,-103 278,-103 278,-101 180,-101"/>
<text text-anchor="start" x="182" y="-93.4" font-family="Bitstream-Vera Sans" font-size="7.00" fill="#000000">&#45; id : INTEGER</text>
<text text-anchor="start" x="182" y="-81.4" font-family="Bitstream-Vera Sans" font-size="7.00" fill="#000000">&#45; image : INTEGER</text>
<text text-anchor="start" x="182" y="-69.4" font-family="Bitstream-Vera Sans" font-size="7.00" fill="#000000">&#45; detector_type : INTEGER</text>
<text text-anchor="start" x="182" y="-57.4" font-family="Bitstream-Vera Sans" font-size="7.00" fill="#000000">&#45; feature_type : INTEGER</text>
<text text-anchor="start" x="182" y="-45.4" font-family="Bitstream-Vera Sans" font-size="7.00" fill="#000000">&#45; count : INTEGER</text>
<text text-anchor="start" x="182" y="-33.4" font-family="Bitstream-Vera Sans" font-size="7.00" fill="#000000">&#45; size : REAL</text>
<text text-anchor="start" x="182" y="-21.4" font-family="Bitstream-Vera Sans" font-size="7.00" fill="#000000">&#45; time : REAL</text>
<text text-anchor="start" x="182" y="-9.4" font-family="Bitstream-Vera Sans" font-size="7.00" fill="#000000">&#45; data : BLOB</text>
<polygon fill="none" stroke="#000000" points="179,-4 179,-116 279,-116 279,-4 179,-4"/>
</g>
<!-- feature_match&#45;&gt;image_feature -->
<g id="edge4" class="edge">
<title>feature_match&#45;&gt;image_feature</title>
<path fill="none" stroke="#0000ff" d="M98.1858,-53.9092C118.1225,-53.2187 141.4492,-53.0707 162.8397,-53.465"/>
<ellipse fill="none" stroke="#0000ff" cx="166.9329" cy="-53.5549" rx="4" ry="4"/>
<text text-anchor="middle" x="162.9319" y="-48.8427" font-family="Bitstream-Vera Sans" font-size="6.00" fill="#000000">+ id</text>
<text text-anchor="middle" x="117.1858" y="-49.1092" font-family="Bitstream-Vera Sans" font-size="6.00" fill="#000000">+ feature1</text>
</g>
<!-- feature_match&#45;&gt;image_feature -->
<g id="edge5" class="edge">
<title>feature_match&#45;&gt;image_feature</title>
<path fill="none" stroke="#0000ff" d="M98.1858,-66.0908C118.1225,-66.7813 141.4492,-66.9293 162.8397,-66.535"/>
<ellipse fill="none" stroke="#0000ff" cx="166.9329" cy="-66.4451" rx="4" ry="4"/>
<text text-anchor="middle" x="162.9319" y="-61.5573" font-family="Bitstream-Vera Sans" font-size="6.00" fill="#000000">+ id</text>
<text text-anchor="middle" x="117.1858" y="-61.2908" font-family="Bitstream-Vera Sans" font-size="6.00" fill="#000000">+ feature2</text>
</g>
<!-- image_feature&#45;&gt;feature_type -->
<g id="edge6" class="edge">
<title>image_feature&#45;&gt;feature_type</title>
<path fill="none" stroke="#0000ff" d="M287.4408,-80.581C312.2655,-91.4007 340.758,-104.6815 363.9155,-116.2718"/>
<ellipse fill="none" stroke="#0000ff" cx="367.6651" cy="-118.1664" rx="4" ry="4"/>
<text text-anchor="middle" x="363.2353" y="-115.1703" font-family="Bitstream-Vera Sans" font-size="6.00" fill="#000000">+ id</text>
<text text-anchor="middle" x="315.9408" y="-75.781" font-family="Bitstream-Vera Sans" font-size="6.00" fill="#000000">+ detector_type</text>
</g>
<!-- image_feature&#45;&gt;feature_type -->
<g id="edge7" class="edge">
<title>image_feature&#45;&gt;feature_type</title>
<path fill="none" stroke="#0000ff" d="M287.4408,-93.3145C312.158,-105.3362 340.5113,-118.2717 363.6144,-128.0232"/>
<ellipse fill="none" stroke="#0000ff" cx="367.5436" cy="-129.6622" rx="4" ry="4"/>
<text text-anchor="middle" x="363.2353" y="-126.4022" font-family="Bitstream-Vera Sans" font-size="6.00" fill="#000000">+ id</text>
<text text-anchor="middle" x="313.9408" y="-88.5145" font-family="Bitstream-Vera Sans" font-size="6.00" fill="#000000">+ feature_type</text>
</g>
<!-- image -->
<g id="node6" class="node">
<title>image</title>
<text text-anchor="start" x="399.5" y="-75.4" font-family="Bitstream-Vera Sans" font-size="7.00" fill="#000000">image</text>
<polygon fill="none" stroke="#000000" points="369,-69 369,-71 449,-71 449,-69 369,-69"/>
<text text-anchor="start" x="371" y="-61.4" font-family="Bitstream-Vera Sans" font-size="7.00" fill="#000000">&#45; id : INTEGER</text>
<text text-anchor="start" x="371" y="-49.4" font-family="Bitstream-Vera Sans" font-size="7.00" fill="#000000">&#45; name : TEXT</text>
<text text-anchor="start" x="371" y="-37.4" font-family="Bitstream-Vera Sans" font-size="7.00" fill="#000000">&#45; sequence : INTEGER</text>
<polygon fill="none" stroke="#000000" points="368,-32 368,-84 450,-84 450,-32 368,-32"/>
</g>
<!-- image_feature&#45;&gt;image -->
<g id="edge8" class="edge">
<title>image_feature&#45;&gt;image</title>
<path fill="none" stroke="#0000ff" d="M287.4408,-59.3507C308.1032,-59.1211 331.3065,-58.8633 351.8596,-58.6349"/>
<ellipse fill="none" stroke="#0000ff" cx="355.8925" cy="-58.5901" rx="4" ry="4"/>
<text text-anchor="middle" x="351.8923" y="-53.7456" font-family="Bitstream-Vera Sans" font-size="6.00" fill="#000000">+ id</text>
<text text-anchor="middle" x="300.9408" y="-54.5507" font-family="Bitstream-Vera Sans" font-size="6.00" fill="#000000">+ image</text>
</g>
<!-- image&#45;&gt;sequence -->
<g id="edge9" class="edge">
<title>image&#45;&gt;sequence</title>
<path fill="none" stroke="#0000ff" d="M458.1567,-82.9636C479.0263,-93.5619 503.1903,-105.8333 523.5762,-116.186"/>
<ellipse fill="none" stroke="#0000ff" cx="527.3362" cy="-118.0955" rx="4" ry="4"/>
<text text-anchor="middle" x="522.9027" y="-115.1067" font-family="Bitstream-Vera Sans" font-size="6.00" fill="#000000">+ id</text>
<text text-anchor="middle" x="477.1567" y="-78.1636" font-family="Bitstream-Vera Sans" font-size="6.00" fill="#000000">+ sequence</text>
</g>
</g>
</svg>
