<?xml version="1.0" encoding="utf-8" standalone="no"?>
<!DOCTYPE svg PUBLIC "-//W3C//DTD SVG 1.1//EN"
  "http://www.w3.org/Graphics/SVG/1.1/DTD/svg11.dtd">
<!-- Created with matplotlib (https://matplotlib.org/) -->
<svg height="720pt" version="1.1" viewBox="0 0 1440 720" width="1440pt" xmlns="http://www.w3.org/2000/svg" xmlns:xlink="http://www.w3.org/1999/xlink">
 <defs>
  <style type="text/css">
*{stroke-linecap:butt;stroke-linejoin:round;}
  </style>
 </defs>
 <g id="figure_1">
  <g id="patch_1">
   <path d="M 0 720 
L 1440 720 
L 1440 0 
L 0 0 
z
" style="fill:#ffffff;"/>
  </g>
  <g id="axes_1">
   <g id="patch_2">
    <path d="M 433.636364 142.363636 
L 213.980829 269.181818 
L 213.980829 522.818182 
L 433.636364 649.636364 
L 653.291898 522.818182 
L 653.291898 269.181818 
z
" style="fill:#ffffff;"/>
   </g>
   <g id="matplotlib.axis_1">
    <g id="xtick_1">
     <g id="line2d_1">
      <path clip-path="url(#pae75a3b60c)" d="M 433.636364 396 
L 433.636364 353.727273 
L 433.636364 311.454545 
L 433.636364 269.181818 
L 433.636364 226.909091 
L 433.636364 184.636364 
L 433.636364 142.363636 
" style="fill:none;stroke:#b0b0b0;stroke-linecap:square;stroke-width:0.8;"/>
     </g>
     <g id="text_1">
      <!-- castle-P30 -->
      <defs>
       <path d="M 48.78125 52.59375 
L 48.78125 44.1875 
Q 44.96875 46.296875 41.140625 47.34375 
Q 37.3125 48.390625 33.40625 48.390625 
Q 24.65625 48.390625 19.8125 42.84375 
Q 14.984375 37.3125 14.984375 27.296875 
Q 14.984375 17.28125 19.8125 11.734375 
Q 24.65625 6.203125 33.40625 6.203125 
Q 37.3125 6.203125 41.140625 7.25 
Q 44.96875 8.296875 48.78125 10.40625 
L 48.78125 2.09375 
Q 45.015625 0.34375 40.984375 -0.53125 
Q 36.96875 -1.421875 32.421875 -1.421875 
Q 20.0625 -1.421875 12.78125 6.34375 
Q 5.515625 14.109375 5.515625 27.296875 
Q 5.515625 40.671875 12.859375 48.328125 
Q 20.21875 56 33.015625 56 
Q 37.15625 56 41.109375 55.140625 
Q 45.0625 54.296875 48.78125 52.59375 
z
" id="DejaVuSans-99"/>
       <path d="M 34.28125 27.484375 
Q 23.390625 27.484375 19.1875 25 
Q 14.984375 22.515625 14.984375 16.5 
Q 14.984375 11.71875 18.140625 8.90625 
Q 21.296875 6.109375 26.703125 6.109375 
Q 34.1875 6.109375 38.703125 11.40625 
Q 43.21875 16.703125 43.21875 25.484375 
L 43.21875 27.484375 
z
M 52.203125 31.203125 
L 52.203125 0 
L 43.21875 0 
L 43.21875 8.296875 
Q 40.140625 3.328125 35.546875 0.953125 
Q 30.953125 -1.421875 24.3125 -1.421875 
Q 15.921875 -1.421875 10.953125 3.296875 
Q 6 8.015625 6 15.921875 
Q 6 25.140625 12.171875 29.828125 
Q 18.359375 34.515625 30.609375 34.515625 
L 43.21875 34.515625 
L 43.21875 35.40625 
Q 43.21875 41.609375 39.140625 45 
Q 35.0625 48.390625 27.6875 48.390625 
Q 23 48.390625 18.546875 47.265625 
Q 14.109375 46.140625 10.015625 43.890625 
L 10.015625 52.203125 
Q 14.9375 54.109375 19.578125 55.046875 
Q 24.21875 56 28.609375 56 
Q 40.484375 56 46.34375 49.84375 
Q 52.203125 43.703125 52.203125 31.203125 
z
" id="DejaVuSans-97"/>
       <path d="M 44.28125 53.078125 
L 44.28125 44.578125 
Q 40.484375 46.53125 36.375 47.5 
Q 32.28125 48.484375 27.875 48.484375 
Q 21.1875 48.484375 17.84375 46.4375 
Q 14.5 44.390625 14.5 40.28125 
Q 14.5 37.15625 16.890625 35.375 
Q 19.28125 33.59375 26.515625 31.984375 
L 29.59375 31.296875 
Q 39.15625 29.25 43.1875 25.515625 
Q 47.21875 21.78125 47.21875 15.09375 
Q 47.21875 7.46875 41.1875 3.015625 
Q 35.15625 -1.421875 24.609375 -1.421875 
Q 20.21875 -1.421875 15.453125 -0.5625 
Q 10.6875 0.296875 5.421875 2 
L 5.421875 11.28125 
Q 10.40625 8.6875 15.234375 7.390625 
Q 20.0625 6.109375 24.8125 6.109375 
Q 31.15625 6.109375 34.5625 8.28125 
Q 37.984375 10.453125 37.984375 14.40625 
Q 37.984375 18.0625 35.515625 20.015625 
Q 33.0625 21.96875 24.703125 23.78125 
L 21.578125 24.515625 
Q 13.234375 26.265625 9.515625 29.90625 
Q 5.8125 33.546875 5.8125 39.890625 
Q 5.8125 47.609375 11.28125 51.796875 
Q 16.75 56 26.8125 56 
Q 31.78125 56 36.171875 55.265625 
Q 40.578125 54.546875 44.28125 53.078125 
z
" id="DejaVuSans-115"/>
       <path d="M 18.3125 70.21875 
L 18.3125 54.6875 
L 36.8125 54.6875 
L 36.8125 47.703125 
L 18.3125 47.703125 
L 18.3125 18.015625 
Q 18.3125 11.328125 20.140625 9.421875 
Q 21.96875 7.515625 27.59375 7.515625 
L 36.8125 7.515625 
L 36.8125 0 
L 27.59375 0 
Q 17.1875 0 13.234375 3.875 
Q 9.28125 7.765625 9.28125 18.015625 
L 9.28125 47.703125 
L 2.6875 47.703125 
L 2.6875 54.6875 
L 9.28125 54.6875 
L 9.28125 70.21875 
z
" id="DejaVuSans-116"/>
       <path d="M 9.421875 75.984375 
L 18.40625 75.984375 
L 18.40625 0 
L 9.421875 0 
z
" id="DejaVuSans-108"/>
       <path d="M 56.203125 29.59375 
L 56.203125 25.203125 
L 14.890625 25.203125 
Q 15.484375 15.921875 20.484375 11.0625 
Q 25.484375 6.203125 34.421875 6.203125 
Q 39.59375 6.203125 44.453125 7.46875 
Q 49.3125 8.734375 54.109375 11.28125 
L 54.109375 2.78125 
Q 49.265625 0.734375 44.1875 -0.34375 
Q 39.109375 -1.421875 33.890625 -1.421875 
Q 20.796875 -1.421875 13.15625 6.1875 
Q 5.515625 13.8125 5.515625 26.8125 
Q 5.515625 40.234375 12.765625 48.109375 
Q 20.015625 56 32.328125 56 
Q 43.359375 56 49.78125 48.890625 
Q 56.203125 41.796875 56.203125 29.59375 
z
M 47.21875 32.234375 
Q 47.125 39.59375 43.09375 43.984375 
Q 39.0625 48.390625 32.421875 48.390625 
Q 24.90625 48.390625 20.390625 44.140625 
Q 15.875 39.890625 15.1875 32.171875 
z
" id="DejaVuSans-101"/>
       <path d="M 4.890625 31.390625 
L 31.203125 31.390625 
L 31.203125 23.390625 
L 4.890625 23.390625 
z
" id="DejaVuSans-45"/>
       <path d="M 19.671875 64.796875 
L 19.671875 37.40625 
L 32.078125 37.40625 
Q 38.96875 37.40625 42.71875 40.96875 
Q 46.484375 44.53125 46.484375 51.125 
Q 46.484375 57.671875 42.71875 61.234375 
Q 38.96875 64.796875 32.078125 64.796875 
z
M 9.8125 72.90625 
L 32.078125 72.90625 
Q 44.34375 72.90625 50.609375 67.359375 
Q 56.890625 61.8125 56.890625 51.125 
Q 56.890625 40.328125 50.609375 34.8125 
Q 44.34375 29.296875 32.078125 29.296875 
L 19.671875 29.296875 
L 19.671875 0 
L 9.8125 0 
z
" id="DejaVuSans-80"/>
       <path d="M 40.578125 39.3125 
Q 47.65625 37.796875 51.625 33 
Q 55.609375 28.21875 55.609375 21.1875 
Q 55.609375 10.40625 48.1875 4.484375 
Q 40.765625 -1.421875 27.09375 -1.421875 
Q 22.515625 -1.421875 17.65625 -0.515625 
Q 12.796875 0.390625 7.625 2.203125 
L 7.625 11.71875 
Q 11.71875 9.328125 16.59375 8.109375 
Q 21.484375 6.890625 26.8125 6.890625 
Q 36.078125 6.890625 40.9375 10.546875 
Q 45.796875 14.203125 45.796875 21.1875 
Q 45.796875 27.640625 41.28125 31.265625 
Q 36.765625 34.90625 28.71875 34.90625 
L 20.21875 34.90625 
L 20.21875 43.015625 
L 29.109375 43.015625 
Q 36.375 43.015625 40.234375 45.921875 
Q 44.09375 48.828125 44.09375 54.296875 
Q 44.09375 59.90625 40.109375 62.90625 
Q 36.140625 65.921875 28.71875 65.921875 
Q 24.65625 65.921875 20.015625 65.03125 
Q 15.375 64.15625 9.8125 62.3125 
L 9.8125 71.09375 
Q 15.4375 72.65625 20.34375 73.4375 
Q 25.25 74.21875 29.59375 74.21875 
Q 40.828125 74.21875 47.359375 69.109375 
Q 53.90625 64.015625 53.90625 55.328125 
Q 53.90625 49.265625 50.4375 45.09375 
Q 46.96875 40.921875 40.578125 39.3125 
z
" id="DejaVuSans-51"/>
       <path d="M 31.78125 66.40625 
Q 24.171875 66.40625 20.328125 58.90625 
Q 16.5 51.421875 16.5 36.375 
Q 16.5 21.390625 20.328125 13.890625 
Q 24.171875 6.390625 31.78125 6.390625 
Q 39.453125 6.390625 43.28125 13.890625 
Q 47.125 21.390625 47.125 36.375 
Q 47.125 51.421875 43.28125 58.90625 
Q 39.453125 66.40625 31.78125 66.40625 
z
M 31.78125 74.21875 
Q 44.046875 74.21875 50.515625 64.515625 
Q 56.984375 54.828125 56.984375 36.375 
Q 56.984375 17.96875 50.515625 8.265625 
Q 44.046875 -1.421875 31.78125 -1.421875 
Q 19.53125 -1.421875 13.0625 8.265625 
Q 6.59375 17.96875 6.59375 36.375 
Q 6.59375 54.828125 13.0625 64.515625 
Q 19.53125 74.21875 31.78125 74.21875 
z
" id="DejaVuSans-48"/>
      </defs>
      <g transform="translate(407.611364 131.123011)scale(0.1 -0.1)">
       <use xlink:href="#DejaVuSans-99"/>
       <use x="54.980469" xlink:href="#DejaVuSans-97"/>
       <use x="116.259766" xlink:href="#DejaVuSans-115"/>
       <use x="168.359375" xlink:href="#DejaVuSans-116"/>
       <use x="207.568359" xlink:href="#DejaVuSans-108"/>
       <use x="235.351562" xlink:href="#DejaVuSans-101"/>
       <use x="296.875" xlink:href="#DejaVuSans-45"/>
       <use x="332.958984" xlink:href="#DejaVuSans-80"/>
       <use x="393.261719" xlink:href="#DejaVuSans-51"/>
       <use x="456.884766" xlink:href="#DejaVuSans-48"/>
      </g>
     </g>
    </g>
    <g id="xtick_2">
     <g id="line2d_2">
      <path clip-path="url(#pae75a3b60c)" d="M 433.636364 396 
L 397.027108 374.863636 
L 360.417852 353.727273 
L 323.808597 332.590909 
L 287.199341 311.454545 
L 250.590085 290.318182 
L 213.980829 269.181818 
" style="fill:none;stroke:#b0b0b0;stroke-linecap:square;stroke-width:0.8;"/>
     </g>
     <g id="text_2">
      <!-- fountain-P11 -->
      <defs>
       <path d="M 37.109375 75.984375 
L 37.109375 68.5 
L 28.515625 68.5 
Q 23.6875 68.5 21.796875 66.546875 
Q 19.921875 64.59375 19.921875 59.515625 
L 19.921875 54.6875 
L 34.71875 54.6875 
L 34.71875 47.703125 
L 19.921875 47.703125 
L 19.921875 0 
L 10.890625 0 
L 10.890625 47.703125 
L 2.296875 47.703125 
L 2.296875 54.6875 
L 10.890625 54.6875 
L 10.890625 58.5 
Q 10.890625 67.625 15.140625 71.796875 
Q 19.390625 75.984375 28.609375 75.984375 
z
" id="DejaVuSans-102"/>
       <path d="M 30.609375 48.390625 
Q 23.390625 48.390625 19.1875 42.75 
Q 14.984375 37.109375 14.984375 27.296875 
Q 14.984375 17.484375 19.15625 11.84375 
Q 23.34375 6.203125 30.609375 6.203125 
Q 37.796875 6.203125 41.984375 11.859375 
Q 46.1875 17.53125 46.1875 27.296875 
Q 46.1875 37.015625 41.984375 42.703125 
Q 37.796875 48.390625 30.609375 48.390625 
z
M 30.609375 56 
Q 42.328125 56 49.015625 48.375 
Q 55.71875 40.765625 55.71875 27.296875 
Q 55.71875 13.875 49.015625 6.21875 
Q 42.328125 -1.421875 30.609375 -1.421875 
Q 18.84375 -1.421875 12.171875 6.21875 
Q 5.515625 13.875 5.515625 27.296875 
Q 5.515625 40.765625 12.171875 48.375 
Q 18.84375 56 30.609375 56 
z
" id="DejaVuSans-111"/>
       <path d="M 8.5 21.578125 
L 8.5 54.6875 
L 17.484375 54.6875 
L 17.484375 21.921875 
Q 17.484375 14.15625 20.5 10.265625 
Q 23.53125 6.390625 29.59375 6.390625 
Q 36.859375 6.390625 41.078125 11.03125 
Q 45.3125 15.671875 45.3125 23.6875 
L 45.3125 54.6875 
L 54.296875 54.6875 
L 54.296875 0 
L 45.3125 0 
L 45.3125 8.40625 
Q 42.046875 3.421875 37.71875 1 
Q 33.40625 -1.421875 27.6875 -1.421875 
Q 18.265625 -1.421875 13.375 4.4375 
Q 8.5 10.296875 8.5 21.578125 
z
M 31.109375 56 
z
" id="DejaVuSans-117"/>
       <path d="M 54.890625 33.015625 
L 54.890625 0 
L 45.90625 0 
L 45.90625 32.71875 
Q 45.90625 40.484375 42.875 44.328125 
Q 39.84375 48.1875 33.796875 48.1875 
Q 26.515625 48.1875 22.3125 43.546875 
Q 18.109375 38.921875 18.109375 30.90625 
L 18.109375 0 
L 9.078125 0 
L 9.078125 54.6875 
L 18.109375 54.6875 
L 18.109375 46.1875 
Q 21.34375 51.125 25.703125 53.5625 
Q 30.078125 56 35.796875 56 
Q 45.21875 56 50.046875 50.171875 
Q 54.890625 44.34375 54.890625 33.015625 
z
" id="DejaVuSans-110"/>
       <path d="M 9.421875 54.6875 
L 18.40625 54.6875 
L 18.40625 0 
L 9.421875 0 
z
M 9.421875 75.984375 
L 18.40625 75.984375 
L 18.40625 64.59375 
L 9.421875 64.59375 
z
" id="DejaVuSans-105"/>
       <path d="M 12.40625 8.296875 
L 28.515625 8.296875 
L 28.515625 63.921875 
L 10.984375 60.40625 
L 10.984375 69.390625 
L 28.421875 72.90625 
L 38.28125 72.90625 
L 38.28125 8.296875 
L 54.390625 8.296875 
L 54.390625 0 
L 12.40625 0 
z
" id="DejaVuSans-49"/>
      </defs>
      <g transform="translate(169.936161 264.941193)scale(0.1 -0.1)">
       <use xlink:href="#DejaVuSans-102"/>
       <use x="35.205078" xlink:href="#DejaVuSans-111"/>
       <use x="96.386719" xlink:href="#DejaVuSans-117"/>
       <use x="159.765625" xlink:href="#DejaVuSans-110"/>
       <use x="223.144531" xlink:href="#DejaVuSans-116"/>
       <use x="262.353516" xlink:href="#DejaVuSans-97"/>
       <use x="323.632812" xlink:href="#DejaVuSans-105"/>
       <use x="351.416016" xlink:href="#DejaVuSans-110"/>
       <use x="414.794922" xlink:href="#DejaVuSans-45"/>
       <use x="450.878906" xlink:href="#DejaVuSans-80"/>
       <use x="511.181641" xlink:href="#DejaVuSans-49"/>
       <use x="574.804688" xlink:href="#DejaVuSans-49"/>
      </g>
     </g>
    </g>
    <g id="xtick_3">
     <g id="line2d_3">
      <path clip-path="url(#pae75a3b60c)" d="M 433.636364 396 
L 397.027108 417.136364 
L 360.417852 438.272727 
L 323.808597 459.409091 
L 287.199341 480.545455 
L 250.590085 501.681818 
L 213.980829 522.818182 
" style="fill:none;stroke:#b0b0b0;stroke-linecap:square;stroke-width:0.8;"/>
     </g>
     <g id="text_3">
      <!-- castle-P19 -->
      <defs>
       <path d="M 10.984375 1.515625 
L 10.984375 10.5 
Q 14.703125 8.734375 18.5 7.8125 
Q 22.3125 6.890625 25.984375 6.890625 
Q 35.75 6.890625 40.890625 13.453125 
Q 46.046875 20.015625 46.78125 33.40625 
Q 43.953125 29.203125 39.59375 26.953125 
Q 35.25 24.703125 29.984375 24.703125 
Q 19.046875 24.703125 12.671875 31.3125 
Q 6.296875 37.9375 6.296875 49.421875 
Q 6.296875 60.640625 12.9375 67.421875 
Q 19.578125 74.21875 30.609375 74.21875 
Q 43.265625 74.21875 49.921875 64.515625 
Q 56.59375 54.828125 56.59375 36.375 
Q 56.59375 19.140625 48.40625 8.859375 
Q 40.234375 -1.421875 26.421875 -1.421875 
Q 22.703125 -1.421875 18.890625 -0.6875 
Q 15.09375 0.046875 10.984375 1.515625 
z
M 30.609375 32.421875 
Q 37.25 32.421875 41.125 36.953125 
Q 45.015625 41.5 45.015625 49.421875 
Q 45.015625 57.28125 41.125 61.84375 
Q 37.25 66.40625 30.609375 66.40625 
Q 23.96875 66.40625 20.09375 61.84375 
Q 16.21875 57.28125 16.21875 49.421875 
Q 16.21875 41.5 20.09375 36.953125 
Q 23.96875 32.421875 30.609375 32.421875 
z
" id="DejaVuSans-57"/>
      </defs>
      <g transform="translate(175.831474 532.577557)scale(0.1 -0.1)">
       <use xlink:href="#DejaVuSans-99"/>
       <use x="54.980469" xlink:href="#DejaVuSans-97"/>
       <use x="116.259766" xlink:href="#DejaVuSans-115"/>
       <use x="168.359375" xlink:href="#DejaVuSans-116"/>
       <use x="207.568359" xlink:href="#DejaVuSans-108"/>
       <use x="235.351562" xlink:href="#DejaVuSans-101"/>
       <use x="296.875" xlink:href="#DejaVuSans-45"/>
       <use x="332.958984" xlink:href="#DejaVuSans-80"/>
       <use x="393.261719" xlink:href="#DejaVuSans-49"/>
       <use x="456.884766" xlink:href="#DejaVuSans-57"/>
      </g>
     </g>
    </g>
    <g id="xtick_4">
     <g id="line2d_4">
      <path clip-path="url(#pae75a3b60c)" d="M 433.636364 396 
L 433.636364 438.272727 
L 433.636364 480.545455 
L 433.636364 522.818182 
L 433.636364 565.090909 
L 433.636364 607.363636 
L 433.636364 649.636364 
" style="fill:none;stroke:#b0b0b0;stroke-linecap:square;stroke-width:0.8;"/>
     </g>
     <g id="text_4">
      <!-- Herz-Jesus-P8 -->
      <defs>
       <path d="M 9.8125 72.90625 
L 19.671875 72.90625 
L 19.671875 43.015625 
L 55.515625 43.015625 
L 55.515625 72.90625 
L 65.375 72.90625 
L 65.375 0 
L 55.515625 0 
L 55.515625 34.71875 
L 19.671875 34.71875 
L 19.671875 0 
L 9.8125 0 
z
" id="DejaVuSans-72"/>
       <path d="M 41.109375 46.296875 
Q 39.59375 47.171875 37.8125 47.578125 
Q 36.03125 48 33.890625 48 
Q 26.265625 48 22.1875 43.046875 
Q 18.109375 38.09375 18.109375 28.8125 
L 18.109375 0 
L 9.078125 0 
L 9.078125 54.6875 
L 18.109375 54.6875 
L 18.109375 46.1875 
Q 20.953125 51.171875 25.484375 53.578125 
Q 30.03125 56 36.53125 56 
Q 37.453125 56 38.578125 55.875 
Q 39.703125 55.765625 41.0625 55.515625 
z
" id="DejaVuSans-114"/>
       <path d="M 5.515625 54.6875 
L 48.1875 54.6875 
L 48.1875 46.484375 
L 14.40625 7.171875 
L 48.1875 7.171875 
L 48.1875 0 
L 4.296875 0 
L 4.296875 8.203125 
L 38.09375 47.515625 
L 5.515625 47.515625 
z
" id="DejaVuSans-122"/>
       <path d="M 9.8125 72.90625 
L 19.671875 72.90625 
L 19.671875 5.078125 
Q 19.671875 -8.109375 14.671875 -14.0625 
Q 9.671875 -20.015625 -1.421875 -20.015625 
L -5.171875 -20.015625 
L -5.171875 -11.71875 
L -2.09375 -11.71875 
Q 4.4375 -11.71875 7.125 -8.046875 
Q 9.8125 -4.390625 9.8125 5.078125 
z
" id="DejaVuSans-74"/>
       <path d="M 31.78125 34.625 
Q 24.75 34.625 20.71875 30.859375 
Q 16.703125 27.09375 16.703125 20.515625 
Q 16.703125 13.921875 20.71875 10.15625 
Q 24.75 6.390625 31.78125 6.390625 
Q 38.8125 6.390625 42.859375 10.171875 
Q 46.921875 13.96875 46.921875 20.515625 
Q 46.921875 27.09375 42.890625 30.859375 
Q 38.875 34.625 31.78125 34.625 
z
M 21.921875 38.8125 
Q 15.578125 40.375 12.03125 44.71875 
Q 8.5 49.078125 8.5 55.328125 
Q 8.5 64.0625 14.71875 69.140625 
Q 20.953125 74.21875 31.78125 74.21875 
Q 42.671875 74.21875 48.875 69.140625 
Q 55.078125 64.0625 55.078125 55.328125 
Q 55.078125 49.078125 51.53125 44.71875 
Q 48 40.375 41.703125 38.8125 
Q 48.828125 37.15625 52.796875 32.3125 
Q 56.78125 27.484375 56.78125 20.515625 
Q 56.78125 9.90625 50.3125 4.234375 
Q 43.84375 -1.421875 31.78125 -1.421875 
Q 19.734375 -1.421875 13.25 4.234375 
Q 6.78125 9.90625 6.78125 20.515625 
Q 6.78125 27.484375 10.78125 32.3125 
Q 14.796875 37.15625 21.921875 38.8125 
z
M 18.3125 54.390625 
Q 18.3125 48.734375 21.84375 45.5625 
Q 25.390625 42.390625 31.78125 42.390625 
Q 38.140625 42.390625 41.71875 45.5625 
Q 45.3125 48.734375 45.3125 54.390625 
Q 45.3125 60.0625 41.71875 63.234375 
Q 38.140625 66.40625 31.78125 66.40625 
Q 25.390625 66.40625 21.84375 63.234375 
Q 18.3125 60.0625 18.3125 54.390625 
z
" id="DejaVuSans-56"/>
      </defs>
      <g transform="translate(399.105114 666.395739)scale(0.1 -0.1)">
       <use xlink:href="#DejaVuSans-72"/>
       <use x="75.195312" xlink:href="#DejaVuSans-101"/>
       <use x="136.71875" xlink:href="#DejaVuSans-114"/>
       <use x="177.832031" xlink:href="#DejaVuSans-122"/>
       <use x="230.322266" xlink:href="#DejaVuSans-45"/>
       <use x="272.03125" xlink:href="#DejaVuSans-74"/>
       <use x="301.523438" xlink:href="#DejaVuSans-101"/>
       <use x="363.046875" xlink:href="#DejaVuSans-115"/>
       <use x="415.146484" xlink:href="#DejaVuSans-117"/>
       <use x="478.525391" xlink:href="#DejaVuSans-115"/>
       <use x="530.625" xlink:href="#DejaVuSans-45"/>
       <use x="566.708984" xlink:href="#DejaVuSans-80"/>
       <use x="627.011719" xlink:href="#DejaVuSans-56"/>
      </g>
     </g>
    </g>
    <g id="xtick_5">
     <g id="line2d_5">
      <path clip-path="url(#pae75a3b60c)" d="M 433.636364 396 
L 470.245619 417.136364 
L 506.854875 438.272727 
L 543.464131 459.409091 
L 580.073386 480.545455 
L 616.682642 501.681818 
L 653.291898 522.818182 
" style="fill:none;stroke:#b0b0b0;stroke-linecap:square;stroke-width:0.8;"/>
     </g>
     <g id="text_5">
      <!-- Herz-Jesus-P25 -->
      <defs>
       <path d="M 19.1875 8.296875 
L 53.609375 8.296875 
L 53.609375 0 
L 7.328125 0 
L 7.328125 8.296875 
Q 12.9375 14.109375 22.625 23.890625 
Q 32.328125 33.6875 34.8125 36.53125 
Q 39.546875 41.84375 41.421875 45.53125 
Q 43.3125 49.21875 43.3125 52.78125 
Q 43.3125 58.59375 39.234375 62.25 
Q 35.15625 65.921875 28.609375 65.921875 
Q 23.96875 65.921875 18.8125 64.3125 
Q 13.671875 62.703125 7.8125 59.421875 
L 7.8125 69.390625 
Q 13.765625 71.78125 18.9375 73 
Q 24.125 74.21875 28.421875 74.21875 
Q 39.75 74.21875 46.484375 68.546875 
Q 53.21875 62.890625 53.21875 53.421875 
Q 53.21875 48.921875 51.53125 44.890625 
Q 49.859375 40.875 45.40625 35.40625 
Q 44.1875 33.984375 37.640625 27.21875 
Q 31.109375 20.453125 19.1875 8.296875 
z
" id="DejaVuSans-50"/>
       <path d="M 10.796875 72.90625 
L 49.515625 72.90625 
L 49.515625 64.59375 
L 19.828125 64.59375 
L 19.828125 46.734375 
Q 21.96875 47.46875 24.109375 47.828125 
Q 26.265625 48.1875 28.421875 48.1875 
Q 40.625 48.1875 47.75 41.5 
Q 54.890625 34.8125 54.890625 23.390625 
Q 54.890625 11.625 47.5625 5.09375 
Q 40.234375 -1.421875 26.90625 -1.421875 
Q 22.3125 -1.421875 17.546875 -0.640625 
Q 12.796875 0.140625 7.71875 1.703125 
L 7.71875 11.625 
Q 12.109375 9.234375 16.796875 8.0625 
Q 21.484375 6.890625 26.703125 6.890625 
Q 35.15625 6.890625 40.078125 11.328125 
Q 45.015625 15.765625 45.015625 23.390625 
Q 45.015625 31 40.078125 35.4375 
Q 35.15625 39.890625 26.703125 39.890625 
Q 22.75 39.890625 18.8125 39.015625 
Q 14.890625 38.140625 10.796875 36.28125 
z
" id="DejaVuSans-53"/>
      </defs>
      <g transform="translate(627.703754 532.577557)scale(0.1 -0.1)">
       <use xlink:href="#DejaVuSans-72"/>
       <use x="75.195312" xlink:href="#DejaVuSans-101"/>
       <use x="136.71875" xlink:href="#DejaVuSans-114"/>
       <use x="177.832031" xlink:href="#DejaVuSans-122"/>
       <use x="230.322266" xlink:href="#DejaVuSans-45"/>
       <use x="272.03125" xlink:href="#DejaVuSans-74"/>
       <use x="301.523438" xlink:href="#DejaVuSans-101"/>
       <use x="363.046875" xlink:href="#DejaVuSans-115"/>
       <use x="415.146484" xlink:href="#DejaVuSans-117"/>
       <use x="478.525391" xlink:href="#DejaVuSans-115"/>
       <use x="530.625" xlink:href="#DejaVuSans-45"/>
       <use x="566.708984" xlink:href="#DejaVuSans-80"/>
       <use x="627.011719" xlink:href="#DejaVuSans-50"/>
       <use x="690.634766" xlink:href="#DejaVuSans-53"/>
      </g>
     </g>
    </g>
    <g id="xtick_6">
     <g id="line2d_6">
      <path clip-path="url(#pae75a3b60c)" d="M 433.636364 396 
L 470.245619 374.863636 
L 506.854875 353.727273 
L 543.464131 332.590909 
L 580.073386 311.454545 
L 616.682642 290.318182 
L 653.291898 269.181818 
" style="fill:none;stroke:#b0b0b0;stroke-linecap:square;stroke-width:0.8;"/>
     </g>
     <g id="text_6">
      <!-- entry-P10 -->
      <defs>
       <path d="M 32.171875 -5.078125 
Q 28.375 -14.84375 24.75 -17.8125 
Q 21.140625 -20.796875 15.09375 -20.796875 
L 7.90625 -20.796875 
L 7.90625 -13.28125 
L 13.1875 -13.28125 
Q 16.890625 -13.28125 18.9375 -11.515625 
Q 21 -9.765625 23.484375 -3.21875 
L 25.09375 0.875 
L 2.984375 54.6875 
L 12.5 54.6875 
L 29.59375 11.921875 
L 46.6875 54.6875 
L 56.203125 54.6875 
z
" id="DejaVuSans-121"/>
      </defs>
      <g transform="translate(641.102191 264.941193)scale(0.1 -0.1)">
       <use xlink:href="#DejaVuSans-101"/>
       <use x="61.523438" xlink:href="#DejaVuSans-110"/>
       <use x="124.902344" xlink:href="#DejaVuSans-116"/>
       <use x="164.111328" xlink:href="#DejaVuSans-114"/>
       <use x="205.224609" xlink:href="#DejaVuSans-121"/>
       <use x="262.654297" xlink:href="#DejaVuSans-45"/>
       <use x="298.738281" xlink:href="#DejaVuSans-80"/>
       <use x="359.041016" xlink:href="#DejaVuSans-49"/>
       <use x="422.664062" xlink:href="#DejaVuSans-48"/>
      </g>
     </g>
    </g>
   </g>
   <g id="matplotlib.axis_2">
    <g id="ytick_1">
     <g id="line2d_7">
      <path clip-path="url(#pae75a3b60c)" d="M 433.636364 347.688312 
L 391.797214 371.844156 
L 391.797214 420.155844 
L 433.636364 444.311688 
L 475.475513 420.155844 
L 475.475513 371.844156 
L 433.636364 347.688312 
" style="fill:none;stroke:#b0b0b0;stroke-linecap:square;stroke-width:0.8;"/>
     </g>
     <g id="text_7">
      <!-- 0.2 -->
      <defs>
       <path d="M 10.6875 12.40625 
L 21 12.40625 
L 21 0 
L 10.6875 0 
z
" id="DejaVuSans-46"/>
      </defs>
      <g transform="translate(415.148281 349.286132)scale(0.1 -0.1)">
       <use xlink:href="#DejaVuSans-48"/>
       <use x="63.623047" xlink:href="#DejaVuSans-46"/>
       <use x="95.410156" xlink:href="#DejaVuSans-50"/>
      </g>
     </g>
    </g>
    <g id="ytick_2">
     <g id="line2d_8">
      <path clip-path="url(#pae75a3b60c)" d="M 433.636364 299.376623 
L 349.958065 347.688312 
L 349.958065 444.311688 
L 433.636364 492.623377 
L 517.314662 444.311688 
L 517.314662 347.688312 
L 433.636364 299.376623 
" style="fill:none;stroke:#b0b0b0;stroke-linecap:square;stroke-width:0.8;"/>
     </g>
     <g id="text_8">
      <!-- 0.4 -->
      <defs>
       <path d="M 37.796875 64.3125 
L 12.890625 25.390625 
L 37.796875 25.390625 
z
M 35.203125 72.90625 
L 47.609375 72.90625 
L 47.609375 25.390625 
L 58.015625 25.390625 
L 58.015625 17.1875 
L 47.609375 17.1875 
L 47.609375 0 
L 37.796875 0 
L 37.796875 17.1875 
L 4.890625 17.1875 
L 4.890625 26.703125 
z
" id="DejaVuSans-52"/>
      </defs>
      <g transform="translate(396.660198 304.651952)scale(0.1 -0.1)">
       <use xlink:href="#DejaVuSans-48"/>
       <use x="63.623047" xlink:href="#DejaVuSans-46"/>
       <use x="95.410156" xlink:href="#DejaVuSans-52"/>
      </g>
     </g>
    </g>
    <g id="ytick_3">
     <g id="line2d_9">
      <path clip-path="url(#pae75a3b60c)" d="M 433.636364 251.064935 
L 308.118916 323.532468 
L 308.118916 468.467532 
L 433.636364 540.935065 
L 559.153812 468.467532 
L 559.153812 323.532468 
L 433.636364 251.064935 
" style="fill:none;stroke:#b0b0b0;stroke-linecap:square;stroke-width:0.8;"/>
     </g>
     <g id="text_9">
      <!-- 0.6 -->
      <defs>
       <path d="M 33.015625 40.375 
Q 26.375 40.375 22.484375 35.828125 
Q 18.609375 31.296875 18.609375 23.390625 
Q 18.609375 15.53125 22.484375 10.953125 
Q 26.375 6.390625 33.015625 6.390625 
Q 39.65625 6.390625 43.53125 10.953125 
Q 47.40625 15.53125 47.40625 23.390625 
Q 47.40625 31.296875 43.53125 35.828125 
Q 39.65625 40.375 33.015625 40.375 
z
M 52.59375 71.296875 
L 52.59375 62.3125 
Q 48.875 64.0625 45.09375 64.984375 
Q 41.3125 65.921875 37.59375 65.921875 
Q 27.828125 65.921875 22.671875 59.328125 
Q 17.53125 52.734375 16.796875 39.40625 
Q 19.671875 43.65625 24.015625 45.921875 
Q 28.375 48.1875 33.59375 48.1875 
Q 44.578125 48.1875 50.953125 41.515625 
Q 57.328125 34.859375 57.328125 23.390625 
Q 57.328125 12.15625 50.6875 5.359375 
Q 44.046875 -1.421875 33.015625 -1.421875 
Q 20.359375 -1.421875 13.671875 8.265625 
Q 6.984375 17.96875 6.984375 36.375 
Q 6.984375 53.65625 15.1875 63.9375 
Q 23.390625 74.21875 37.203125 74.21875 
Q 40.921875 74.21875 44.703125 73.484375 
Q 48.484375 72.75 52.59375 71.296875 
z
" id="DejaVuSans-54"/>
      </defs>
      <g transform="translate(378.172116 260.017772)scale(0.1 -0.1)">
       <use xlink:href="#DejaVuSans-48"/>
       <use x="63.623047" xlink:href="#DejaVuSans-46"/>
       <use x="95.410156" xlink:href="#DejaVuSans-54"/>
      </g>
     </g>
    </g>
    <g id="ytick_4">
     <g id="line2d_10">
      <path clip-path="url(#pae75a3b60c)" d="M 433.636364 202.753247 
L 266.279766 299.376623 
L 266.279766 492.623377 
L 433.636364 589.246753 
L 600.992961 492.623377 
L 600.992961 299.376623 
L 433.636364 202.753247 
" style="fill:none;stroke:#b0b0b0;stroke-linecap:square;stroke-width:0.8;"/>
     </g>
     <g id="text_10">
      <!-- 0.8 -->
      <g transform="translate(359.684033 215.383592)scale(0.1 -0.1)">
       <use xlink:href="#DejaVuSans-48"/>
       <use x="63.623047" xlink:href="#DejaVuSans-46"/>
       <use x="95.410156" xlink:href="#DejaVuSans-56"/>
      </g>
     </g>
    </g>
    <g id="ytick_5">
     <g id="line2d_11">
      <path clip-path="url(#pae75a3b60c)" d="M 433.636364 154.441558 
L 224.440617 275.220779 
L 224.440617 516.779221 
L 433.636364 637.558442 
L 642.832111 516.779221 
L 642.832111 275.220779 
L 433.636364 154.441558 
" style="fill:none;stroke:#b0b0b0;stroke-linecap:square;stroke-width:0.8;"/>
     </g>
     <g id="text_11">
      <!-- 1.0 -->
      <g transform="translate(341.19595 170.749412)scale(0.1 -0.1)">
       <use xlink:href="#DejaVuSans-49"/>
       <use x="63.623047" xlink:href="#DejaVuSans-46"/>
       <use x="95.410156" xlink:href="#DejaVuSans-48"/>
      </g>
     </g>
    </g>
   </g>
   <g id="line2d_12">
    <path clip-path="url(#pae75a3b60c)" d="M 433.636364 215.310516 
L 232.99918 280.162068 
L 316.854812 463.42386 
L 433.636364 622.535167 
L 600.408555 492.28597 
L 642.832111 275.220779 
L 433.636364 215.310516 
" style="fill:none;stroke:#1f77b4;stroke-linecap:square;stroke-width:1.5;"/>
    <defs>
     <path d="M 0 3 
C 0.795609 3 1.55874 2.683901 2.12132 2.12132 
C 2.683901 1.55874 3 0.795609 3 0 
C 3 -0.795609 2.683901 -1.55874 2.12132 -2.12132 
C 1.55874 -2.683901 0.795609 -3 0 -3 
C -0.795609 -3 -1.55874 -2.683901 -2.12132 -2.12132 
C -2.683901 -1.55874 -3 -0.795609 -3 0 
C -3 0.795609 -2.683901 1.55874 -2.12132 2.12132 
C -1.55874 2.683901 -0.795609 3 0 3 
z
" id="m875f5d0c52" style="stroke:#1f77b4;"/>
    </defs>
    <g clip-path="url(#pae75a3b60c)">
     <use style="fill:#1f77b4;stroke:#1f77b4;" x="433.636364" xlink:href="#m875f5d0c52" y="215.310516"/>
     <use style="fill:#1f77b4;stroke:#1f77b4;" x="232.99918" xlink:href="#m875f5d0c52" y="280.162068"/>
     <use style="fill:#1f77b4;stroke:#1f77b4;" x="316.854812" xlink:href="#m875f5d0c52" y="463.42386"/>
     <use style="fill:#1f77b4;stroke:#1f77b4;" x="433.636364" xlink:href="#m875f5d0c52" y="622.535167"/>
     <use style="fill:#1f77b4;stroke:#1f77b4;" x="600.408555" xlink:href="#m875f5d0c52" y="492.28597"/>
     <use style="fill:#1f77b4;stroke:#1f77b4;" x="642.832111" xlink:href="#m875f5d0c52" y="275.220779"/>
     <use style="fill:#1f77b4;stroke:#1f77b4;" x="433.636364" xlink:href="#m875f5d0c52" y="215.310516"/>
    </g>
   </g>
   <g id="line2d_13">
    <path clip-path="url(#pae75a3b60c)" d="M 433.636364 219.080297 
L 239.11244 283.69156 
L 304.13153 470.769651 
L 433.636364 627.872383 
L 606.523175 495.816247 
L 628.597649 283.439049 
L 433.636364 219.080297 
" style="fill:none;stroke:#aec7e8;stroke-linecap:square;stroke-width:1.5;"/>
    <defs>
     <path d="M 0 -3 
L -3 3 
L 3 3 
z
" id="m2ea87b1212" style="stroke:#aec7e8;stroke-linejoin:miter;"/>
    </defs>
    <g clip-path="url(#pae75a3b60c)">
     <use style="fill:#aec7e8;stroke:#aec7e8;stroke-linejoin:miter;" x="433.636364" xlink:href="#m2ea87b1212" y="219.080297"/>
     <use style="fill:#aec7e8;stroke:#aec7e8;stroke-linejoin:miter;" x="239.11244" xlink:href="#m2ea87b1212" y="283.69156"/>
     <use style="fill:#aec7e8;stroke:#aec7e8;stroke-linejoin:miter;" x="304.13153" xlink:href="#m2ea87b1212" y="470.769651"/>
     <use style="fill:#aec7e8;stroke:#aec7e8;stroke-linejoin:miter;" x="433.636364" xlink:href="#m2ea87b1212" y="627.872383"/>
     <use style="fill:#aec7e8;stroke:#aec7e8;stroke-linejoin:miter;" x="606.523175" xlink:href="#m2ea87b1212" y="495.816247"/>
     <use style="fill:#aec7e8;stroke:#aec7e8;stroke-linejoin:miter;" x="628.597649" xlink:href="#m2ea87b1212" y="283.439049"/>
     <use style="fill:#aec7e8;stroke:#aec7e8;stroke-linejoin:miter;" x="433.636364" xlink:href="#m2ea87b1212" y="219.080297"/>
    </g>
   </g>
   <g id="line2d_14">
    <path clip-path="url(#pae75a3b60c)" d="M 433.636364 396 
L 433.636364 396 
L 433.636364 396 
L 433.636364 396 
L 488.0186 427.397599 
L 433.636364 396 
L 433.636364 396 
" style="fill:none;stroke:#ff7f0e;stroke-linecap:square;stroke-width:1.5;"/>
    <defs>
     <path d="M -0 3 
L 3 -3 
L -3 -3 
z
" id="mb5083107cb" style="stroke:#ff7f0e;stroke-linejoin:miter;"/>
    </defs>
    <g clip-path="url(#pae75a3b60c)">
     <use style="fill:#ff7f0e;stroke:#ff7f0e;stroke-linejoin:miter;" x="433.636364" xlink:href="#mb5083107cb" y="396"/>
     <use style="fill:#ff7f0e;stroke:#ff7f0e;stroke-linejoin:miter;" x="433.636364" xlink:href="#mb5083107cb" y="396"/>
     <use style="fill:#ff7f0e;stroke:#ff7f0e;stroke-linejoin:miter;" x="433.636364" xlink:href="#mb5083107cb" y="396"/>
     <use style="fill:#ff7f0e;stroke:#ff7f0e;stroke-linejoin:miter;" x="433.636364" xlink:href="#mb5083107cb" y="396"/>
     <use style="fill:#ff7f0e;stroke:#ff7f0e;stroke-linejoin:miter;" x="488.0186" xlink:href="#mb5083107cb" y="427.397599"/>
     <use style="fill:#ff7f0e;stroke:#ff7f0e;stroke-linejoin:miter;" x="433.636364" xlink:href="#mb5083107cb" y="396"/>
     <use style="fill:#ff7f0e;stroke:#ff7f0e;stroke-linejoin:miter;" x="433.636364" xlink:href="#mb5083107cb" y="396"/>
    </g>
   </g>
   <g id="line2d_15">
    <path clip-path="url(#pae75a3b60c)" d="M 433.636364 210.793279 
L 235.444484 281.573865 
L 282.831393 483.067291 
L 433.636364 613.639807 
L 612.475459 499.2528 
L 617.413429 289.896262 
L 433.636364 210.793279 
" style="fill:none;stroke:#ffbb78;stroke-linecap:square;stroke-width:1.5;"/>
    <defs>
     <path d="M -3 -0 
L 3 3 
L 3 -3 
z
" id="m293c049ab0" style="stroke:#ffbb78;stroke-linejoin:miter;"/>
    </defs>
    <g clip-path="url(#pae75a3b60c)">
     <use style="fill:#ffbb78;stroke:#ffbb78;stroke-linejoin:miter;" x="433.636364" xlink:href="#m293c049ab0" y="210.793279"/>
     <use style="fill:#ffbb78;stroke:#ffbb78;stroke-linejoin:miter;" x="235.444484" xlink:href="#m293c049ab0" y="281.573865"/>
     <use style="fill:#ffbb78;stroke:#ffbb78;stroke-linejoin:miter;" x="282.831393" xlink:href="#m293c049ab0" y="483.067291"/>
     <use style="fill:#ffbb78;stroke:#ffbb78;stroke-linejoin:miter;" x="433.636364" xlink:href="#m293c049ab0" y="613.639807"/>
     <use style="fill:#ffbb78;stroke:#ffbb78;stroke-linejoin:miter;" x="612.475459" xlink:href="#m293c049ab0" y="499.2528"/>
     <use style="fill:#ffbb78;stroke:#ffbb78;stroke-linejoin:miter;" x="617.413429" xlink:href="#m293c049ab0" y="289.896262"/>
     <use style="fill:#ffbb78;stroke:#ffbb78;stroke-linejoin:miter;" x="433.636364" xlink:href="#m293c049ab0" y="210.793279"/>
    </g>
   </g>
   <g id="line2d_16">
    <path clip-path="url(#pae75a3b60c)" d="M 433.636364 193.796768 
L 224.440617 275.220779 
L 262.15606 495.0042 
L 433.636364 631.035178 
L 627.031501 507.656734 
L 612.838067 292.537849 
L 433.636364 193.796768 
" style="fill:none;stroke:#2ca02c;stroke-linecap:square;stroke-width:1.5;"/>
    <defs>
     <path d="M 3 0 
L -3 -3 
L -3 3 
z
" id="mcde4d53177" style="stroke:#2ca02c;stroke-linejoin:miter;"/>
    </defs>
    <g clip-path="url(#pae75a3b60c)">
     <use style="fill:#2ca02c;stroke:#2ca02c;stroke-linejoin:miter;" x="433.636364" xlink:href="#mcde4d53177" y="193.796768"/>
     <use style="fill:#2ca02c;stroke:#2ca02c;stroke-linejoin:miter;" x="224.440617" xlink:href="#mcde4d53177" y="275.220779"/>
     <use style="fill:#2ca02c;stroke:#2ca02c;stroke-linejoin:miter;" x="262.15606" xlink:href="#mcde4d53177" y="495.0042"/>
     <use style="fill:#2ca02c;stroke:#2ca02c;stroke-linejoin:miter;" x="433.636364" xlink:href="#mcde4d53177" y="631.035178"/>
     <use style="fill:#2ca02c;stroke:#2ca02c;stroke-linejoin:miter;" x="627.031501" xlink:href="#mcde4d53177" y="507.656734"/>
     <use style="fill:#2ca02c;stroke:#2ca02c;stroke-linejoin:miter;" x="612.838067" xlink:href="#mcde4d53177" y="292.537849"/>
     <use style="fill:#2ca02c;stroke:#2ca02c;stroke-linejoin:miter;" x="433.636364" xlink:href="#mcde4d53177" y="193.796768"/>
    </g>
   </g>
   <g id="line2d_17">
    <path clip-path="url(#pae75a3b60c)" d="M 433.636364 330.548809 
L 332.523048 337.6222 
L 391.547293 420.300136 
L 433.636364 518.558293 
L 547.920227 461.98182 
L 519.170226 346.617001 
L 433.636364 330.548809 
" style="fill:none;stroke:#98df8a;stroke-linecap:square;stroke-width:1.5;"/>
    <defs>
     <path d="M -3 3 
L 3 3 
L 3 -3 
L -3 -3 
z
" id="m8cf51be091" style="stroke:#98df8a;stroke-linejoin:miter;"/>
    </defs>
    <g clip-path="url(#pae75a3b60c)">
     <use style="fill:#98df8a;stroke:#98df8a;stroke-linejoin:miter;" x="433.636364" xlink:href="#m8cf51be091" y="330.548809"/>
     <use style="fill:#98df8a;stroke:#98df8a;stroke-linejoin:miter;" x="332.523048" xlink:href="#m8cf51be091" y="337.6222"/>
     <use style="fill:#98df8a;stroke:#98df8a;stroke-linejoin:miter;" x="391.547293" xlink:href="#m8cf51be091" y="420.300136"/>
     <use style="fill:#98df8a;stroke:#98df8a;stroke-linejoin:miter;" x="433.636364" xlink:href="#m8cf51be091" y="518.558293"/>
     <use style="fill:#98df8a;stroke:#98df8a;stroke-linejoin:miter;" x="547.920227" xlink:href="#m8cf51be091" y="461.98182"/>
     <use style="fill:#98df8a;stroke:#98df8a;stroke-linejoin:miter;" x="519.170226" xlink:href="#m8cf51be091" y="346.617001"/>
     <use style="fill:#98df8a;stroke:#98df8a;stroke-linejoin:miter;" x="433.636364" xlink:href="#m8cf51be091" y="330.548809"/>
    </g>
   </g>
   <g id="line2d_18">
    <path clip-path="url(#pae75a3b60c)" d="M 433.636364 236.434287 
L 260.508849 296.044783 
L 331.338905 455.061465 
L 433.636364 617.5933 
L 621.836779 504.657561 
L 547.893336 330.033706 
L 433.636364 236.434287 
" style="fill:none;stroke:#d62728;stroke-linecap:square;stroke-width:1.5;"/>
    <defs>
     <path d="M -3 0 
L 3 0 
M 0 3 
L 0 -3 
" id="m78efb23c66" style="stroke:#d62728;"/>
    </defs>
    <g clip-path="url(#pae75a3b60c)">
     <use style="fill:#d62728;stroke:#d62728;" x="433.636364" xlink:href="#m78efb23c66" y="236.434287"/>
     <use style="fill:#d62728;stroke:#d62728;" x="260.508849" xlink:href="#m78efb23c66" y="296.044783"/>
     <use style="fill:#d62728;stroke:#d62728;" x="331.338905" xlink:href="#m78efb23c66" y="455.061465"/>
     <use style="fill:#d62728;stroke:#d62728;" x="433.636364" xlink:href="#m78efb23c66" y="617.5933"/>
     <use style="fill:#d62728;stroke:#d62728;" x="621.836779" xlink:href="#m78efb23c66" y="504.657561"/>
     <use style="fill:#d62728;stroke:#d62728;" x="547.893336" xlink:href="#m78efb23c66" y="330.033706"/>
     <use style="fill:#d62728;stroke:#d62728;" x="433.636364" xlink:href="#m78efb23c66" y="236.434287"/>
    </g>
   </g>
   <g id="line2d_19">
    <path clip-path="url(#pae75a3b60c)" d="M 433.636364 154.441558 
L 246.815147 288.13872 
L 224.440617 516.779221 
L 433.636364 637.558442 
L 642.832111 516.779221 
L 476.466842 371.271812 
L 433.636364 154.441558 
" style="fill:none;stroke:#ff9896;stroke-linecap:square;stroke-width:1.5;"/>
    <defs>
     <path d="M -3 3 
L 3 -3 
M -3 -3 
L 3 3 
" id="m2cff92f6b7" style="stroke:#ff9896;"/>
    </defs>
    <g clip-path="url(#pae75a3b60c)">
     <use style="fill:#ff9896;stroke:#ff9896;" x="433.636364" xlink:href="#m2cff92f6b7" y="154.441558"/>
     <use style="fill:#ff9896;stroke:#ff9896;" x="246.815147" xlink:href="#m2cff92f6b7" y="288.13872"/>
     <use style="fill:#ff9896;stroke:#ff9896;" x="224.440617" xlink:href="#m2cff92f6b7" y="516.779221"/>
     <use style="fill:#ff9896;stroke:#ff9896;" x="433.636364" xlink:href="#m2cff92f6b7" y="637.558442"/>
     <use style="fill:#ff9896;stroke:#ff9896;" x="642.832111" xlink:href="#m2cff92f6b7" y="516.779221"/>
     <use style="fill:#ff9896;stroke:#ff9896;" x="476.466842" xlink:href="#m2cff92f6b7" y="371.271812"/>
     <use style="fill:#ff9896;stroke:#ff9896;" x="433.636364" xlink:href="#m2cff92f6b7" y="154.441558"/>
    </g>
   </g>
   <g id="line2d_20">
    <path clip-path="url(#pae75a3b60c)" d="M 433.636364 241.958965 
L 270.65686 301.90374 
L 353.945451 442.00957 
L 433.636364 603.558399 
L 613.882363 500.065076 
L 552.341605 327.465497 
L 433.636364 241.958965 
" style="fill:none;stroke:#9467bd;stroke-linecap:square;stroke-width:1.5;"/>
    <defs>
     <path d="M -0 4.242641 
L 2.545584 0 
L 0 -4.242641 
L -2.545584 -0 
z
" id="m6631247430" style="stroke:#9467bd;stroke-linejoin:miter;"/>
    </defs>
    <g clip-path="url(#pae75a3b60c)">
     <use style="fill:#9467bd;stroke:#9467bd;stroke-linejoin:miter;" x="433.636364" xlink:href="#m6631247430" y="241.958965"/>
     <use style="fill:#9467bd;stroke:#9467bd;stroke-linejoin:miter;" x="270.65686" xlink:href="#m6631247430" y="301.90374"/>
     <use style="fill:#9467bd;stroke:#9467bd;stroke-linejoin:miter;" x="353.945451" xlink:href="#m6631247430" y="442.00957"/>
     <use style="fill:#9467bd;stroke:#9467bd;stroke-linejoin:miter;" x="433.636364" xlink:href="#m6631247430" y="603.558399"/>
     <use style="fill:#9467bd;stroke:#9467bd;stroke-linejoin:miter;" x="613.882363" xlink:href="#m6631247430" y="500.065076"/>
     <use style="fill:#9467bd;stroke:#9467bd;stroke-linejoin:miter;" x="552.341605" xlink:href="#m6631247430" y="327.465497"/>
     <use style="fill:#9467bd;stroke:#9467bd;stroke-linejoin:miter;" x="433.636364" xlink:href="#m6631247430" y="241.958965"/>
    </g>
   </g>
   <g id="patch_3">
    <path d="M 433.636364 142.363636 
L 213.980829 269.181818 
L 213.980829 522.818182 
L 433.636364 649.636364 
L 653.291898 522.818182 
L 653.291898 269.181818 
z
" style="fill:none;stroke:#000000;stroke-linecap:square;stroke-linejoin:miter;stroke-width:0.8;"/>
   </g>
   <g id="text_12">
    <!-- Point Cloud Size (Normalized) -->
    <defs>
     <path d="M 9.1875 72.90625 
L 40.375 72.90625 
Q 54.296875 72.90625 61.734375 66.71875 
Q 69.1875 60.546875 69.1875 49.125 
Q 69.1875 37.640625 61.734375 31.46875 
Q 54.296875 25.296875 40.375 25.296875 
L 27.984375 25.296875 
L 27.984375 0 
L 9.1875 0 
z
M 27.984375 59.28125 
L 27.984375 38.921875 
L 38.375 38.921875 
Q 43.84375 38.921875 46.828125 41.578125 
Q 49.8125 44.234375 49.8125 49.125 
Q 49.8125 54 46.828125 56.640625 
Q 43.84375 59.28125 38.375 59.28125 
z
" id="DejaVuSans-Bold-80"/>
     <path d="M 34.421875 43.5 
Q 28.609375 43.5 25.5625 39.328125 
Q 22.515625 35.15625 22.515625 27.296875 
Q 22.515625 19.4375 25.5625 15.25 
Q 28.609375 11.078125 34.421875 11.078125 
Q 40.140625 11.078125 43.15625 15.25 
Q 46.1875 19.4375 46.1875 27.296875 
Q 46.1875 35.15625 43.15625 39.328125 
Q 40.140625 43.5 34.421875 43.5 
z
M 34.421875 56 
Q 48.53125 56 56.46875 48.375 
Q 64.40625 40.765625 64.40625 27.296875 
Q 64.40625 13.8125 56.46875 6.1875 
Q 48.53125 -1.421875 34.421875 -1.421875 
Q 20.265625 -1.421875 12.28125 6.1875 
Q 4.296875 13.8125 4.296875 27.296875 
Q 4.296875 40.765625 12.28125 48.375 
Q 20.265625 56 34.421875 56 
z
" id="DejaVuSans-Bold-111"/>
     <path d="M 8.40625 54.6875 
L 25.875 54.6875 
L 25.875 0 
L 8.40625 0 
z
M 8.40625 75.984375 
L 25.875 75.984375 
L 25.875 61.71875 
L 8.40625 61.71875 
z
" id="DejaVuSans-Bold-105"/>
     <path d="M 63.375 33.296875 
L 63.375 0 
L 45.796875 0 
L 45.796875 5.421875 
L 45.796875 25.484375 
Q 45.796875 32.5625 45.484375 35.25 
Q 45.171875 37.9375 44.390625 39.203125 
Q 43.359375 40.921875 41.59375 41.875 
Q 39.84375 42.828125 37.59375 42.828125 
Q 32.125 42.828125 29 38.59375 
Q 25.875 34.375 25.875 26.90625 
L 25.875 0 
L 8.40625 0 
L 8.40625 54.6875 
L 25.875 54.6875 
L 25.875 46.6875 
Q 29.828125 51.46875 34.265625 53.734375 
Q 38.71875 56 44.09375 56 
Q 53.5625 56 58.46875 50.1875 
Q 63.375 44.390625 63.375 33.296875 
z
" id="DejaVuSans-Bold-110"/>
     <path d="M 27.484375 70.21875 
L 27.484375 54.6875 
L 45.515625 54.6875 
L 45.515625 42.1875 
L 27.484375 42.1875 
L 27.484375 19 
Q 27.484375 15.1875 29 13.84375 
Q 30.515625 12.5 35.015625 12.5 
L 44 12.5 
L 44 0 
L 29 0 
Q 18.65625 0 14.328125 4.3125 
Q 10.015625 8.640625 10.015625 19 
L 10.015625 42.1875 
L 1.3125 42.1875 
L 1.3125 54.6875 
L 10.015625 54.6875 
L 10.015625 70.21875 
z
" id="DejaVuSans-Bold-116"/>
     <path id="DejaVuSans-Bold-32"/>
     <path d="M 67 4 
Q 61.8125 1.3125 56.203125 -0.046875 
Q 50.59375 -1.421875 44.484375 -1.421875 
Q 26.265625 -1.421875 15.625 8.765625 
Q 4.984375 18.953125 4.984375 36.375 
Q 4.984375 53.859375 15.625 64.03125 
Q 26.265625 74.21875 44.484375 74.21875 
Q 50.59375 74.21875 56.203125 72.84375 
Q 61.8125 71.484375 67 68.796875 
L 67 53.71875 
Q 61.765625 57.28125 56.6875 58.9375 
Q 51.609375 60.59375 46 60.59375 
Q 35.9375 60.59375 30.171875 54.140625 
Q 24.421875 47.703125 24.421875 36.375 
Q 24.421875 25.09375 30.171875 18.640625 
Q 35.9375 12.203125 46 12.203125 
Q 51.609375 12.203125 56.6875 13.859375 
Q 61.765625 15.53125 67 19.09375 
z
" id="DejaVuSans-Bold-67"/>
     <path d="M 8.40625 75.984375 
L 25.875 75.984375 
L 25.875 0 
L 8.40625 0 
z
" id="DejaVuSans-Bold-108"/>
     <path d="M 7.8125 21.296875 
L 7.8125 54.6875 
L 25.390625 54.6875 
L 25.390625 49.21875 
Q 25.390625 44.78125 25.34375 38.0625 
Q 25.296875 31.34375 25.296875 29.109375 
Q 25.296875 22.515625 25.640625 19.609375 
Q 25.984375 16.703125 26.8125 15.375 
Q 27.875 13.671875 29.609375 12.734375 
Q 31.34375 11.8125 33.59375 11.8125 
Q 39.0625 11.8125 42.1875 16.015625 
Q 45.3125 20.21875 45.3125 27.6875 
L 45.3125 54.6875 
L 62.796875 54.6875 
L 62.796875 0 
L 45.3125 0 
L 45.3125 7.90625 
Q 41.359375 3.125 36.9375 0.84375 
Q 32.515625 -1.421875 27.203125 -1.421875 
Q 17.71875 -1.421875 12.765625 4.390625 
Q 7.8125 10.203125 7.8125 21.296875 
z
" id="DejaVuSans-Bold-117"/>
     <path d="M 45.609375 46.6875 
L 45.609375 75.984375 
L 63.1875 75.984375 
L 63.1875 0 
L 45.609375 0 
L 45.609375 7.90625 
Q 42 3.078125 37.640625 0.828125 
Q 33.296875 -1.421875 27.59375 -1.421875 
Q 17.484375 -1.421875 10.984375 6.609375 
Q 4.5 14.65625 4.5 27.296875 
Q 4.5 39.9375 10.984375 47.96875 
Q 17.484375 56 27.59375 56 
Q 33.25 56 37.625 53.734375 
Q 42 51.46875 45.609375 46.6875 
z
M 34.078125 11.28125 
Q 39.703125 11.28125 42.65625 15.375 
Q 45.609375 19.484375 45.609375 27.296875 
Q 45.609375 35.109375 42.65625 39.203125 
Q 39.703125 43.3125 34.078125 43.3125 
Q 28.515625 43.3125 25.5625 39.203125 
Q 22.609375 35.109375 22.609375 27.296875 
Q 22.609375 19.484375 25.5625 15.375 
Q 28.515625 11.28125 34.078125 11.28125 
z
" id="DejaVuSans-Bold-100"/>
     <path d="M 59.90625 70.609375 
L 59.90625 55.171875 
Q 53.90625 57.859375 48.1875 59.21875 
Q 42.484375 60.59375 37.40625 60.59375 
Q 30.671875 60.59375 27.4375 58.734375 
Q 24.21875 56.890625 24.21875 52.984375 
Q 24.21875 50.046875 26.390625 48.40625 
Q 28.5625 46.78125 34.28125 45.609375 
L 42.28125 44 
Q 54.4375 41.546875 59.5625 36.5625 
Q 64.703125 31.59375 64.703125 22.40625 
Q 64.703125 10.359375 57.546875 4.46875 
Q 50.390625 -1.421875 35.6875 -1.421875 
Q 28.765625 -1.421875 21.78125 -0.09375 
Q 14.796875 1.21875 7.8125 3.8125 
L 7.8125 19.671875 
Q 14.796875 15.96875 21.3125 14.078125 
Q 27.828125 12.203125 33.890625 12.203125 
Q 40.046875 12.203125 43.3125 14.25 
Q 46.578125 16.3125 46.578125 20.125 
Q 46.578125 23.53125 44.359375 25.390625 
Q 42.140625 27.25 35.5 28.71875 
L 28.21875 30.328125 
Q 17.28125 32.671875 12.21875 37.796875 
Q 7.171875 42.921875 7.171875 51.609375 
Q 7.171875 62.5 14.203125 68.359375 
Q 21.234375 74.21875 34.421875 74.21875 
Q 40.4375 74.21875 46.78125 73.3125 
Q 53.125 72.40625 59.90625 70.609375 
z
" id="DejaVuSans-Bold-83"/>
     <path d="M 5.71875 54.6875 
L 53.421875 54.6875 
L 53.421875 42.484375 
L 24.609375 12.5 
L 53.421875 12.5 
L 53.421875 0 
L 4.5 0 
L 4.5 12.203125 
L 33.296875 42.1875 
L 5.71875 42.1875 
z
" id="DejaVuSans-Bold-122"/>
     <path d="M 62.984375 27.484375 
L 62.984375 22.515625 
L 22.125 22.515625 
Q 22.75 16.359375 26.5625 13.28125 
Q 30.375 10.203125 37.203125 10.203125 
Q 42.71875 10.203125 48.5 11.84375 
Q 54.296875 13.484375 60.40625 16.796875 
L 60.40625 3.328125 
Q 54.203125 0.984375 48 -0.21875 
Q 41.796875 -1.421875 35.59375 -1.421875 
Q 20.75 -1.421875 12.515625 6.125 
Q 4.296875 13.671875 4.296875 27.296875 
Q 4.296875 40.671875 12.375 48.328125 
Q 20.453125 56 34.625 56 
Q 47.515625 56 55.25 48.234375 
Q 62.984375 40.484375 62.984375 27.484375 
z
M 45.015625 33.296875 
Q 45.015625 38.28125 42.109375 41.328125 
Q 39.203125 44.390625 34.515625 44.390625 
Q 29.4375 44.390625 26.265625 41.53125 
Q 23.09375 38.671875 22.3125 33.296875 
z
" id="DejaVuSans-Bold-101"/>
     <path d="M 37.703125 -13.1875 
L 23.1875 -13.1875 
Q 15.71875 -1.125 12.15625 9.734375 
Q 8.59375 20.609375 8.59375 31.296875 
Q 8.59375 42 12.171875 52.953125 
Q 15.765625 63.921875 23.1875 75.875 
L 37.703125 75.875 
Q 31.453125 64.3125 28.328125 53.25 
Q 25.203125 42.1875 25.203125 31.390625 
Q 25.203125 20.609375 28.296875 9.515625 
Q 31.390625 -1.5625 37.703125 -13.1875 
z
" id="DejaVuSans-Bold-40"/>
     <path d="M 9.1875 72.90625 
L 30.171875 72.90625 
L 56.6875 22.90625 
L 56.6875 72.90625 
L 74.515625 72.90625 
L 74.515625 0 
L 53.515625 0 
L 27 50 
L 27 0 
L 9.1875 0 
z
" id="DejaVuSans-Bold-78"/>
     <path d="M 49.03125 39.796875 
Q 46.734375 40.875 44.453125 41.375 
Q 42.1875 41.890625 39.890625 41.890625 
Q 33.15625 41.890625 29.515625 37.5625 
Q 25.875 33.25 25.875 25.203125 
L 25.875 0 
L 8.40625 0 
L 8.40625 54.6875 
L 25.875 54.6875 
L 25.875 45.703125 
Q 29.25 51.078125 33.609375 53.53125 
Q 37.984375 56 44.09375 56 
Q 44.96875 56 45.984375 55.921875 
Q 47.015625 55.859375 48.96875 55.609375 
z
" id="DejaVuSans-Bold-114"/>
     <path d="M 59.078125 45.609375 
Q 62.40625 50.6875 66.96875 53.34375 
Q 71.53125 56 77 56 
Q 86.421875 56 91.359375 50.1875 
Q 96.296875 44.390625 96.296875 33.296875 
L 96.296875 0 
L 78.71875 0 
L 78.71875 28.515625 
Q 78.765625 29.15625 78.78125 29.828125 
Q 78.8125 30.515625 78.8125 31.78125 
Q 78.8125 37.59375 77.09375 40.203125 
Q 75.390625 42.828125 71.578125 42.828125 
Q 66.609375 42.828125 63.890625 38.71875 
Q 61.1875 34.625 61.078125 26.859375 
L 61.078125 0 
L 43.5 0 
L 43.5 28.515625 
Q 43.5 37.59375 41.9375 40.203125 
Q 40.375 42.828125 36.375 42.828125 
Q 31.34375 42.828125 28.609375 38.703125 
Q 25.875 34.578125 25.875 26.90625 
L 25.875 0 
L 8.296875 0 
L 8.296875 54.6875 
L 25.875 54.6875 
L 25.875 46.6875 
Q 29.109375 51.3125 33.28125 53.65625 
Q 37.453125 56 42.484375 56 
Q 48.140625 56 52.484375 53.265625 
Q 56.84375 50.53125 59.078125 45.609375 
z
" id="DejaVuSans-Bold-109"/>
     <path d="M 32.90625 24.609375 
Q 27.4375 24.609375 24.671875 22.75 
Q 21.921875 20.90625 21.921875 17.28125 
Q 21.921875 13.96875 24.140625 12.078125 
Q 26.375 10.203125 30.328125 10.203125 
Q 35.25 10.203125 38.625 13.734375 
Q 42 17.28125 42 22.609375 
L 42 24.609375 
z
M 59.625 31.203125 
L 59.625 0 
L 42 0 
L 42 8.109375 
Q 38.484375 3.125 34.078125 0.84375 
Q 29.6875 -1.421875 23.390625 -1.421875 
Q 14.890625 -1.421875 9.59375 3.53125 
Q 4.296875 8.5 4.296875 16.40625 
Q 4.296875 26.03125 10.90625 30.515625 
Q 17.53125 35.015625 31.6875 35.015625 
L 42 35.015625 
L 42 36.375 
Q 42 40.53125 38.71875 42.453125 
Q 35.453125 44.390625 28.515625 44.390625 
Q 22.90625 44.390625 18.0625 43.265625 
Q 13.234375 42.140625 9.078125 39.890625 
L 9.078125 53.21875 
Q 14.703125 54.59375 20.359375 55.296875 
Q 26.03125 56 31.6875 56 
Q 46.484375 56 53.046875 50.171875 
Q 59.625 44.34375 59.625 31.203125 
z
" id="DejaVuSans-Bold-97"/>
     <path d="M 8.015625 -13.1875 
Q 14.265625 -1.5625 17.390625 9.515625 
Q 20.515625 20.609375 20.515625 31.390625 
Q 20.515625 42.1875 17.390625 53.25 
Q 14.265625 64.3125 8.015625 75.875 
L 22.515625 75.875 
Q 29.9375 63.921875 33.515625 52.953125 
Q 37.109375 42 37.109375 31.296875 
Q 37.109375 20.609375 33.546875 9.734375 
Q 29.984375 -1.125 22.515625 -13.1875 
z
" id="DejaVuSans-Bold-41"/>
    </defs>
    <g transform="translate(332.707926 114.31125)scale(0.12 -0.12)">
     <use xlink:href="#DejaVuSans-Bold-80"/>
     <use x="73.291016" xlink:href="#DejaVuSans-Bold-111"/>
     <use x="141.992188" xlink:href="#DejaVuSans-Bold-105"/>
     <use x="176.269531" xlink:href="#DejaVuSans-Bold-110"/>
     <use x="247.460938" xlink:href="#DejaVuSans-Bold-116"/>
     <use x="295.263672" xlink:href="#DejaVuSans-Bold-32"/>
     <use x="330.078125" xlink:href="#DejaVuSans-Bold-67"/>
     <use x="403.466797" xlink:href="#DejaVuSans-Bold-108"/>
     <use x="437.744141" xlink:href="#DejaVuSans-Bold-111"/>
     <use x="506.445312" xlink:href="#DejaVuSans-Bold-117"/>
     <use x="577.636719" xlink:href="#DejaVuSans-Bold-100"/>
     <use x="649.21875" xlink:href="#DejaVuSans-Bold-32"/>
     <use x="684.033203" xlink:href="#DejaVuSans-Bold-83"/>
     <use x="756.054688" xlink:href="#DejaVuSans-Bold-105"/>
     <use x="790.332031" xlink:href="#DejaVuSans-Bold-122"/>
     <use x="848.535156" xlink:href="#DejaVuSans-Bold-101"/>
     <use x="916.357422" xlink:href="#DejaVuSans-Bold-32"/>
     <use x="951.171875" xlink:href="#DejaVuSans-Bold-40"/>
     <use x="996.875" xlink:href="#DejaVuSans-Bold-78"/>
     <use x="1080.566406" xlink:href="#DejaVuSans-Bold-111"/>
     <use x="1149.267578" xlink:href="#DejaVuSans-Bold-114"/>
     <use x="1198.583984" xlink:href="#DejaVuSans-Bold-109"/>
     <use x="1302.783203" xlink:href="#DejaVuSans-Bold-97"/>
     <use x="1370.263672" xlink:href="#DejaVuSans-Bold-108"/>
     <use x="1404.541016" xlink:href="#DejaVuSans-Bold-105"/>
     <use x="1438.818359" xlink:href="#DejaVuSans-Bold-122"/>
     <use x="1497.021484" xlink:href="#DejaVuSans-Bold-101"/>
     <use x="1564.84375" xlink:href="#DejaVuSans-Bold-100"/>
     <use x="1636.425781" xlink:href="#DejaVuSans-Bold-41"/>
    </g>
   </g>
  </g>
  <g id="axes_2">
   <g id="patch_4">
    <path d="M 1042.363636 142.363636 
L 822.708102 269.181818 
L 822.708102 522.818182 
L 1042.363636 649.636364 
L 1262.019171 522.818182 
L 1262.019171 269.181818 
z
" style="fill:#ffffff;"/>
   </g>
   <g id="matplotlib.axis_3">
    <g id="xtick_7">
     <g id="line2d_21">
      <path clip-path="url(#pe1c9526f51)" d="M 1042.363636 396 
L 1042.363636 353.727273 
L 1042.363636 311.454545 
L 1042.363636 269.181818 
L 1042.363636 226.909091 
L 1042.363636 184.636364 
L 1042.363636 142.363636 
" style="fill:none;stroke:#b0b0b0;stroke-linecap:square;stroke-width:0.8;"/>
     </g>
     <g id="text_13">
      <!-- castle-P30 -->
      <g transform="translate(1016.338636 131.123011)scale(0.1 -0.1)">
       <use xlink:href="#DejaVuSans-99"/>
       <use x="54.980469" xlink:href="#DejaVuSans-97"/>
       <use x="116.259766" xlink:href="#DejaVuSans-115"/>
       <use x="168.359375" xlink:href="#DejaVuSans-116"/>
       <use x="207.568359" xlink:href="#DejaVuSans-108"/>
       <use x="235.351562" xlink:href="#DejaVuSans-101"/>
       <use x="296.875" xlink:href="#DejaVuSans-45"/>
       <use x="332.958984" xlink:href="#DejaVuSans-80"/>
       <use x="393.261719" xlink:href="#DejaVuSans-51"/>
       <use x="456.884766" xlink:href="#DejaVuSans-48"/>
      </g>
     </g>
    </g>
    <g id="xtick_8">
     <g id="line2d_22">
      <path clip-path="url(#pe1c9526f51)" d="M 1042.363636 396 
L 1005.754381 374.863636 
L 969.145125 353.727273 
L 932.535869 332.590909 
L 895.926614 311.454545 
L 859.317358 290.318182 
L 822.708102 269.181818 
" style="fill:none;stroke:#b0b0b0;stroke-linecap:square;stroke-width:0.8;"/>
     </g>
     <g id="text_14">
      <!-- fountain-P11 -->
      <g transform="translate(778.663434 264.941193)scale(0.1 -0.1)">
       <use xlink:href="#DejaVuSans-102"/>
       <use x="35.205078" xlink:href="#DejaVuSans-111"/>
       <use x="96.386719" xlink:href="#DejaVuSans-117"/>
       <use x="159.765625" xlink:href="#DejaVuSans-110"/>
       <use x="223.144531" xlink:href="#DejaVuSans-116"/>
       <use x="262.353516" xlink:href="#DejaVuSans-97"/>
       <use x="323.632812" xlink:href="#DejaVuSans-105"/>
       <use x="351.416016" xlink:href="#DejaVuSans-110"/>
       <use x="414.794922" xlink:href="#DejaVuSans-45"/>
       <use x="450.878906" xlink:href="#DejaVuSans-80"/>
       <use x="511.181641" xlink:href="#DejaVuSans-49"/>
       <use x="574.804688" xlink:href="#DejaVuSans-49"/>
      </g>
     </g>
    </g>
    <g id="xtick_9">
     <g id="line2d_23">
      <path clip-path="url(#pe1c9526f51)" d="M 1042.363636 396 
L 1005.754381 417.136364 
L 969.145125 438.272727 
L 932.535869 459.409091 
L 895.926614 480.545455 
L 859.317358 501.681818 
L 822.708102 522.818182 
" style="fill:none;stroke:#b0b0b0;stroke-linecap:square;stroke-width:0.8;"/>
     </g>
     <g id="text_15">
      <!-- castle-P19 -->
      <g transform="translate(784.558746 532.577557)scale(0.1 -0.1)">
       <use xlink:href="#DejaVuSans-99"/>
       <use x="54.980469" xlink:href="#DejaVuSans-97"/>
       <use x="116.259766" xlink:href="#DejaVuSans-115"/>
       <use x="168.359375" xlink:href="#DejaVuSans-116"/>
       <use x="207.568359" xlink:href="#DejaVuSans-108"/>
       <use x="235.351562" xlink:href="#DejaVuSans-101"/>
       <use x="296.875" xlink:href="#DejaVuSans-45"/>
       <use x="332.958984" xlink:href="#DejaVuSans-80"/>
       <use x="393.261719" xlink:href="#DejaVuSans-49"/>
       <use x="456.884766" xlink:href="#DejaVuSans-57"/>
      </g>
     </g>
    </g>
    <g id="xtick_10">
     <g id="line2d_24">
      <path clip-path="url(#pe1c9526f51)" d="M 1042.363636 396 
L 1042.363636 438.272727 
L 1042.363636 480.545455 
L 1042.363636 522.818182 
L 1042.363636 565.090909 
L 1042.363636 607.363636 
L 1042.363636 649.636364 
" style="fill:none;stroke:#b0b0b0;stroke-linecap:square;stroke-width:0.8;"/>
     </g>
     <g id="text_16">
      <!-- Herz-Jesus-P8 -->
      <g transform="translate(1007.832386 666.395739)scale(0.1 -0.1)">
       <use xlink:href="#DejaVuSans-72"/>
       <use x="75.195312" xlink:href="#DejaVuSans-101"/>
       <use x="136.71875" xlink:href="#DejaVuSans-114"/>
       <use x="177.832031" xlink:href="#DejaVuSans-122"/>
       <use x="230.322266" xlink:href="#DejaVuSans-45"/>
       <use x="272.03125" xlink:href="#DejaVuSans-74"/>
       <use x="301.523438" xlink:href="#DejaVuSans-101"/>
       <use x="363.046875" xlink:href="#DejaVuSans-115"/>
       <use x="415.146484" xlink:href="#DejaVuSans-117"/>
       <use x="478.525391" xlink:href="#DejaVuSans-115"/>
       <use x="530.625" xlink:href="#DejaVuSans-45"/>
       <use x="566.708984" xlink:href="#DejaVuSans-80"/>
       <use x="627.011719" xlink:href="#DejaVuSans-56"/>
      </g>
     </g>
    </g>
    <g id="xtick_11">
     <g id="line2d_25">
      <path clip-path="url(#pe1c9526f51)" d="M 1042.363636 396 
L 1078.972892 417.136364 
L 1115.582148 438.272727 
L 1152.191403 459.409091 
L 1188.800659 480.545455 
L 1225.409915 501.681818 
L 1262.019171 522.818182 
" style="fill:none;stroke:#b0b0b0;stroke-linecap:square;stroke-width:0.8;"/>
     </g>
     <g id="text_17">
      <!-- Herz-Jesus-P25 -->
      <g transform="translate(1236.431026 532.577557)scale(0.1 -0.1)">
       <use xlink:href="#DejaVuSans-72"/>
       <use x="75.195312" xlink:href="#DejaVuSans-101"/>
       <use x="136.71875" xlink:href="#DejaVuSans-114"/>
       <use x="177.832031" xlink:href="#DejaVuSans-122"/>
       <use x="230.322266" xlink:href="#DejaVuSans-45"/>
       <use x="272.03125" xlink:href="#DejaVuSans-74"/>
       <use x="301.523438" xlink:href="#DejaVuSans-101"/>
       <use x="363.046875" xlink:href="#DejaVuSans-115"/>
       <use x="415.146484" xlink:href="#DejaVuSans-117"/>
       <use x="478.525391" xlink:href="#DejaVuSans-115"/>
       <use x="530.625" xlink:href="#DejaVuSans-45"/>
       <use x="566.708984" xlink:href="#DejaVuSans-80"/>
       <use x="627.011719" xlink:href="#DejaVuSans-50"/>
       <use x="690.634766" xlink:href="#DejaVuSans-53"/>
      </g>
     </g>
    </g>
    <g id="xtick_12">
     <g id="line2d_26">
      <path clip-path="url(#pe1c9526f51)" d="M 1042.363636 396 
L 1078.972892 374.863636 
L 1115.582148 353.727273 
L 1152.191403 332.590909 
L 1188.800659 311.454545 
L 1225.409915 290.318182 
L 1262.019171 269.181818 
" style="fill:none;stroke:#b0b0b0;stroke-linecap:square;stroke-width:0.8;"/>
     </g>
     <g id="text_18">
      <!-- entry-P10 -->
      <g transform="translate(1249.829464 264.941193)scale(0.1 -0.1)">
       <use xlink:href="#DejaVuSans-101"/>
       <use x="61.523438" xlink:href="#DejaVuSans-110"/>
       <use x="124.902344" xlink:href="#DejaVuSans-116"/>
       <use x="164.111328" xlink:href="#DejaVuSans-114"/>
       <use x="205.224609" xlink:href="#DejaVuSans-121"/>
       <use x="262.654297" xlink:href="#DejaVuSans-45"/>
       <use x="298.738281" xlink:href="#DejaVuSans-80"/>
       <use x="359.041016" xlink:href="#DejaVuSans-49"/>
       <use x="422.664062" xlink:href="#DejaVuSans-48"/>
      </g>
     </g>
    </g>
   </g>
   <g id="matplotlib.axis_4">
    <g id="ytick_6">
     <g id="line2d_27">
      <path clip-path="url(#pe1c9526f51)" d="M 1042.363636 341.309855 
L 995.000581 368.654927 
L 995.000581 423.345073 
L 1042.363636 450.690145 
L 1089.726691 423.345073 
L 1089.726691 368.654927 
L 1042.363636 341.309855 
" style="fill:none;stroke:#b0b0b0;stroke-linecap:square;stroke-width:0.8;"/>
     </g>
     <g id="text_19">
      <!-- 0.2 -->
      <g transform="translate(1021.434624 343.393207)scale(0.1 -0.1)">
       <use xlink:href="#DejaVuSans-48"/>
       <use x="63.623047" xlink:href="#DejaVuSans-46"/>
       <use x="95.410156" xlink:href="#DejaVuSans-50"/>
      </g>
     </g>
    </g>
    <g id="ytick_7">
     <g id="line2d_28">
      <path clip-path="url(#pe1c9526f51)" d="M 1042.363636 286.619709 
L 947.637526 341.309855 
L 947.637526 450.690145 
L 1042.363636 505.380291 
L 1137.089747 450.690145 
L 1137.089747 341.309855 
L 1042.363636 286.619709 
" style="fill:none;stroke:#b0b0b0;stroke-linecap:square;stroke-width:0.8;"/>
     </g>
     <g id="text_20">
      <!-- 0.4 -->
      <g transform="translate(1000.505611 292.866101)scale(0.1 -0.1)">
       <use xlink:href="#DejaVuSans-48"/>
       <use x="63.623047" xlink:href="#DejaVuSans-46"/>
       <use x="95.410156" xlink:href="#DejaVuSans-52"/>
      </g>
     </g>
    </g>
    <g id="ytick_8">
     <g id="line2d_29">
      <path clip-path="url(#pe1c9526f51)" d="M 1042.363636 231.929564 
L 900.274471 313.964782 
L 900.274471 478.035218 
L 1042.363636 560.070436 
L 1184.452802 478.035218 
L 1184.452802 313.964782 
L 1042.363636 231.929564 
" style="fill:none;stroke:#b0b0b0;stroke-linecap:square;stroke-width:0.8;"/>
     </g>
     <g id="text_21">
      <!-- 0.6 -->
      <g transform="translate(979.576599 242.338995)scale(0.1 -0.1)">
       <use xlink:href="#DejaVuSans-48"/>
       <use x="63.623047" xlink:href="#DejaVuSans-46"/>
       <use x="95.410156" xlink:href="#DejaVuSans-54"/>
      </g>
     </g>
    </g>
    <g id="ytick_9">
     <g id="line2d_30">
      <path clip-path="url(#pe1c9526f51)" d="M 1042.363636 177.239419 
L 852.911416 286.619709 
L 852.911416 505.380291 
L 1042.363636 614.760581 
L 1231.815857 505.380291 
L 1231.815857 286.619709 
L 1042.363636 177.239419 
" style="fill:none;stroke:#b0b0b0;stroke-linecap:square;stroke-width:0.8;"/>
     </g>
     <g id="text_22">
      <!-- 0.8 -->
      <g transform="translate(958.647586 191.811889)scale(0.1 -0.1)">
       <use xlink:href="#DejaVuSans-48"/>
       <use x="63.623047" xlink:href="#DejaVuSans-46"/>
       <use x="95.410156" xlink:href="#DejaVuSans-56"/>
      </g>
     </g>
    </g>
   </g>
   <g id="line2d_31">
    <path clip-path="url(#pe1c9526f51)" d="M 1042.363636 250.791922 
L 909.338576 319.197945 
L 918.390603 467.575864 
L 1042.363636 559.795344 
L 1205.482946 490.176977 
L 1193.703991 308.623606 
L 1042.363636 250.791922 
" style="fill:none;stroke:#1f77b4;stroke-linecap:square;stroke-width:1.5;"/>
    <g clip-path="url(#pe1c9526f51)">
     <use style="fill:#1f77b4;stroke:#1f77b4;" x="1042.363636" xlink:href="#m875f5d0c52" y="250.791922"/>
     <use style="fill:#1f77b4;stroke:#1f77b4;" x="909.338576" xlink:href="#m875f5d0c52" y="319.197945"/>
     <use style="fill:#1f77b4;stroke:#1f77b4;" x="918.390603" xlink:href="#m875f5d0c52" y="467.575864"/>
     <use style="fill:#1f77b4;stroke:#1f77b4;" x="1042.363636" xlink:href="#m875f5d0c52" y="559.795344"/>
     <use style="fill:#1f77b4;stroke:#1f77b4;" x="1205.482946" xlink:href="#m875f5d0c52" y="490.176977"/>
     <use style="fill:#1f77b4;stroke:#1f77b4;" x="1193.703991" xlink:href="#m875f5d0c52" y="308.623606"/>
     <use style="fill:#1f77b4;stroke:#1f77b4;" x="1042.363636" xlink:href="#m875f5d0c52" y="250.791922"/>
    </g>
   </g>
   <g id="line2d_32">
    <path clip-path="url(#pe1c9526f51)" d="M 1042.363636 238.135802 
L 877.464187 300.795258 
L 907.511072 473.857164 
L 1042.363636 592.614627 
L 1226.6 502.368914 
L 1220.013931 293.433555 
L 1042.363636 238.135802 
" style="fill:none;stroke:#aec7e8;stroke-linecap:square;stroke-width:1.5;"/>
    <g clip-path="url(#pe1c9526f51)">
     <use style="fill:#aec7e8;stroke:#aec7e8;stroke-linejoin:miter;" x="1042.363636" xlink:href="#m2ea87b1212" y="238.135802"/>
     <use style="fill:#aec7e8;stroke:#aec7e8;stroke-linejoin:miter;" x="877.464187" xlink:href="#m2ea87b1212" y="300.795258"/>
     <use style="fill:#aec7e8;stroke:#aec7e8;stroke-linejoin:miter;" x="907.511072" xlink:href="#m2ea87b1212" y="473.857164"/>
     <use style="fill:#aec7e8;stroke:#aec7e8;stroke-linejoin:miter;" x="1042.363636" xlink:href="#m2ea87b1212" y="592.614627"/>
     <use style="fill:#aec7e8;stroke:#aec7e8;stroke-linejoin:miter;" x="1226.6" xlink:href="#m2ea87b1212" y="502.368914"/>
     <use style="fill:#aec7e8;stroke:#aec7e8;stroke-linejoin:miter;" x="1220.013931" xlink:href="#m2ea87b1212" y="293.433555"/>
     <use style="fill:#aec7e8;stroke:#aec7e8;stroke-linejoin:miter;" x="1042.363636" xlink:href="#m2ea87b1212" y="238.135802"/>
    </g>
   </g>
   <g id="line2d_33">
    <path clip-path="url(#pe1c9526f51)" d="M 1042.363636 396 
L 1042.363636 396 
L 1042.363636 396 
L 1042.363636 396 
L 1135.214643 449.607554 
L 1042.363636 396 
L 1042.363636 396 
" style="fill:none;stroke:#ff7f0e;stroke-linecap:square;stroke-width:1.5;"/>
    <g clip-path="url(#pe1c9526f51)">
     <use style="fill:#ff7f0e;stroke:#ff7f0e;stroke-linejoin:miter;" x="1042.363636" xlink:href="#mb5083107cb" y="396"/>
     <use style="fill:#ff7f0e;stroke:#ff7f0e;stroke-linejoin:miter;" x="1042.363636" xlink:href="#mb5083107cb" y="396"/>
     <use style="fill:#ff7f0e;stroke:#ff7f0e;stroke-linejoin:miter;" x="1042.363636" xlink:href="#mb5083107cb" y="396"/>
     <use style="fill:#ff7f0e;stroke:#ff7f0e;stroke-linejoin:miter;" x="1042.363636" xlink:href="#mb5083107cb" y="396"/>
     <use style="fill:#ff7f0e;stroke:#ff7f0e;stroke-linejoin:miter;" x="1135.214643" xlink:href="#mb5083107cb" y="449.607554"/>
     <use style="fill:#ff7f0e;stroke:#ff7f0e;stroke-linejoin:miter;" x="1042.363636" xlink:href="#mb5083107cb" y="396"/>
     <use style="fill:#ff7f0e;stroke:#ff7f0e;stroke-linejoin:miter;" x="1042.363636" xlink:href="#mb5083107cb" y="396"/>
    </g>
   </g>
   <g id="line2d_34">
    <path clip-path="url(#pe1c9526f51)" d="M 1042.363636 254.310412 
L 954.414232 345.222388 
L 902.592656 476.696813 
L 1042.363636 540.881851 
L 1184.467484 478.043695 
L 1178.167724 317.593473 
L 1042.363636 254.310412 
" style="fill:none;stroke:#ffbb78;stroke-linecap:square;stroke-width:1.5;"/>
    <g clip-path="url(#pe1c9526f51)">
     <use style="fill:#ffbb78;stroke:#ffbb78;stroke-linejoin:miter;" x="1042.363636" xlink:href="#m293c049ab0" y="254.310412"/>
     <use style="fill:#ffbb78;stroke:#ffbb78;stroke-linejoin:miter;" x="954.414232" xlink:href="#m293c049ab0" y="345.222388"/>
     <use style="fill:#ffbb78;stroke:#ffbb78;stroke-linejoin:miter;" x="902.592656" xlink:href="#m293c049ab0" y="476.696813"/>
     <use style="fill:#ffbb78;stroke:#ffbb78;stroke-linejoin:miter;" x="1042.363636" xlink:href="#m293c049ab0" y="540.881851"/>
     <use style="fill:#ffbb78;stroke:#ffbb78;stroke-linejoin:miter;" x="1184.467484" xlink:href="#m293c049ab0" y="478.043695"/>
     <use style="fill:#ffbb78;stroke:#ffbb78;stroke-linejoin:miter;" x="1178.167724" xlink:href="#m293c049ab0" y="317.593473"/>
     <use style="fill:#ffbb78;stroke:#ffbb78;stroke-linejoin:miter;" x="1042.363636" xlink:href="#m293c049ab0" y="254.310412"/>
    </g>
   </g>
   <g id="line2d_35">
    <path clip-path="url(#pe1c9526f51)" d="M 1042.363636 233.884737 
L 956.353512 346.342032 
L 904.371612 475.669732 
L 1042.363636 546.644005 
L 1189.688788 481.058216 
L 1171.904908 321.209312 
L 1042.363636 233.884737 
" style="fill:none;stroke:#2ca02c;stroke-linecap:square;stroke-width:1.5;"/>
    <g clip-path="url(#pe1c9526f51)">
     <use style="fill:#2ca02c;stroke:#2ca02c;stroke-linejoin:miter;" x="1042.363636" xlink:href="#mcde4d53177" y="233.884737"/>
     <use style="fill:#2ca02c;stroke:#2ca02c;stroke-linejoin:miter;" x="956.353512" xlink:href="#mcde4d53177" y="346.342032"/>
     <use style="fill:#2ca02c;stroke:#2ca02c;stroke-linejoin:miter;" x="904.371612" xlink:href="#mcde4d53177" y="475.669732"/>
     <use style="fill:#2ca02c;stroke:#2ca02c;stroke-linejoin:miter;" x="1042.363636" xlink:href="#mcde4d53177" y="546.644005"/>
     <use style="fill:#2ca02c;stroke:#2ca02c;stroke-linejoin:miter;" x="1189.688788" xlink:href="#mcde4d53177" y="481.058216"/>
     <use style="fill:#2ca02c;stroke:#2ca02c;stroke-linejoin:miter;" x="1171.904908" xlink:href="#mcde4d53177" y="321.209312"/>
     <use style="fill:#2ca02c;stroke:#2ca02c;stroke-linejoin:miter;" x="1042.363636" xlink:href="#mcde4d53177" y="233.884737"/>
    </g>
   </g>
   <g id="line2d_36">
    <path clip-path="url(#pe1c9526f51)" d="M 1042.363636 263.143144 
L 960.032438 348.46606 
L 882.057456 488.552816 
L 1042.363636 530.002341 
L 1165.546891 467.119885 
L 1147.893496 335.072307 
L 1042.363636 263.143144 
" style="fill:none;stroke:#98df8a;stroke-linecap:square;stroke-width:1.5;"/>
    <g clip-path="url(#pe1c9526f51)">
     <use style="fill:#98df8a;stroke:#98df8a;stroke-linejoin:miter;" x="1042.363636" xlink:href="#m8cf51be091" y="263.143144"/>
     <use style="fill:#98df8a;stroke:#98df8a;stroke-linejoin:miter;" x="960.032438" xlink:href="#m8cf51be091" y="348.46606"/>
     <use style="fill:#98df8a;stroke:#98df8a;stroke-linejoin:miter;" x="882.057456" xlink:href="#m8cf51be091" y="488.552816"/>
     <use style="fill:#98df8a;stroke:#98df8a;stroke-linejoin:miter;" x="1042.363636" xlink:href="#m8cf51be091" y="530.002341"/>
     <use style="fill:#98df8a;stroke:#98df8a;stroke-linejoin:miter;" x="1165.546891" xlink:href="#m8cf51be091" y="467.119885"/>
     <use style="fill:#98df8a;stroke:#98df8a;stroke-linejoin:miter;" x="1147.893496" xlink:href="#m8cf51be091" y="335.072307"/>
     <use style="fill:#98df8a;stroke:#98df8a;stroke-linejoin:miter;" x="1042.363636" xlink:href="#m8cf51be091" y="263.143144"/>
    </g>
   </g>
   <g id="line2d_37">
    <path clip-path="url(#pe1c9526f51)" d="M 1042.363636 245.984932 
L 924.842398 328.149081 
L 880.949871 489.192281 
L 1042.363636 563.554471 
L 1213.597895 494.862145 
L 1236.743746 283.774591 
L 1042.363636 245.984932 
" style="fill:none;stroke:#d62728;stroke-linecap:square;stroke-width:1.5;"/>
    <g clip-path="url(#pe1c9526f51)">
     <use style="fill:#d62728;stroke:#d62728;" x="1042.363636" xlink:href="#m78efb23c66" y="245.984932"/>
     <use style="fill:#d62728;stroke:#d62728;" x="924.842398" xlink:href="#m78efb23c66" y="328.149081"/>
     <use style="fill:#d62728;stroke:#d62728;" x="880.949871" xlink:href="#m78efb23c66" y="489.192281"/>
     <use style="fill:#d62728;stroke:#d62728;" x="1042.363636" xlink:href="#m78efb23c66" y="563.554471"/>
     <use style="fill:#d62728;stroke:#d62728;" x="1213.597895" xlink:href="#m78efb23c66" y="494.862145"/>
     <use style="fill:#d62728;stroke:#d62728;" x="1236.743746" xlink:href="#m78efb23c66" y="283.774591"/>
     <use style="fill:#d62728;stroke:#d62728;" x="1042.363636" xlink:href="#m78efb23c66" y="245.984932"/>
    </g>
   </g>
   <g id="line2d_38">
    <path clip-path="url(#pe1c9526f51)" d="M 1042.363636 221.118963 
L 901.722833 314.800994 
L 884.193766 487.319417 
L 1042.363636 598.012818 
L 1247.75684 514.583822 
L 1251.559383 275.220779 
L 1042.363636 221.118963 
" style="fill:none;stroke:#ff9896;stroke-linecap:square;stroke-width:1.5;"/>
    <g clip-path="url(#pe1c9526f51)">
     <use style="fill:#ff9896;stroke:#ff9896;" x="1042.363636" xlink:href="#m2cff92f6b7" y="221.118963"/>
     <use style="fill:#ff9896;stroke:#ff9896;" x="901.722833" xlink:href="#m2cff92f6b7" y="314.800994"/>
     <use style="fill:#ff9896;stroke:#ff9896;" x="884.193766" xlink:href="#m2cff92f6b7" y="487.319417"/>
     <use style="fill:#ff9896;stroke:#ff9896;" x="1042.363636" xlink:href="#m2cff92f6b7" y="598.012818"/>
     <use style="fill:#ff9896;stroke:#ff9896;" x="1247.75684" xlink:href="#m2cff92f6b7" y="514.583822"/>
     <use style="fill:#ff9896;stroke:#ff9896;" x="1251.559383" xlink:href="#m2cff92f6b7" y="275.220779"/>
     <use style="fill:#ff9896;stroke:#ff9896;" x="1042.363636" xlink:href="#m2cff92f6b7" y="221.118963"/>
    </g>
   </g>
   <g id="line2d_39">
    <path clip-path="url(#pe1c9526f51)" d="M 1042.363636 237.008911 
L 924.961753 328.217991 
L 899.630097 478.407248 
L 1042.363636 581.642964 
L 1215.006235 495.675251 
L 1202.750097 303.400834 
L 1042.363636 237.008911 
" style="fill:none;stroke:#9467bd;stroke-linecap:square;stroke-width:1.5;"/>
    <g clip-path="url(#pe1c9526f51)">
     <use style="fill:#9467bd;stroke:#9467bd;stroke-linejoin:miter;" x="1042.363636" xlink:href="#m6631247430" y="237.008911"/>
     <use style="fill:#9467bd;stroke:#9467bd;stroke-linejoin:miter;" x="924.961753" xlink:href="#m6631247430" y="328.217991"/>
     <use style="fill:#9467bd;stroke:#9467bd;stroke-linejoin:miter;" x="899.630097" xlink:href="#m6631247430" y="478.407248"/>
     <use style="fill:#9467bd;stroke:#9467bd;stroke-linejoin:miter;" x="1042.363636" xlink:href="#m6631247430" y="581.642964"/>
     <use style="fill:#9467bd;stroke:#9467bd;stroke-linejoin:miter;" x="1215.006235" xlink:href="#m6631247430" y="495.675251"/>
     <use style="fill:#9467bd;stroke:#9467bd;stroke-linejoin:miter;" x="1202.750097" xlink:href="#m6631247430" y="303.400834"/>
     <use style="fill:#9467bd;stroke:#9467bd;stroke-linejoin:miter;" x="1042.363636" xlink:href="#m6631247430" y="237.008911"/>
    </g>
   </g>
   <g id="patch_5">
    <path d="M 1042.363636 142.363636 
L 822.708102 269.181818 
L 822.708102 522.818182 
L 1042.363636 649.636364 
L 1262.019171 522.818182 
L 1262.019171 269.181818 
z
" style="fill:none;stroke:#000000;stroke-linecap:square;stroke-linejoin:miter;stroke-width:0.8;"/>
   </g>
   <g id="text_23">
    <!-- Reprojection Error -->
    <defs>
     <path d="M 35.890625 40.578125 
Q 41.796875 40.578125 44.359375 42.765625 
Q 46.921875 44.96875 46.921875 50 
Q 46.921875 54.984375 44.359375 57.125 
Q 41.796875 59.28125 35.890625 59.28125 
L 27.984375 59.28125 
L 27.984375 40.578125 
z
M 27.984375 27.59375 
L 27.984375 0 
L 9.1875 0 
L 9.1875 72.90625 
L 37.890625 72.90625 
Q 52.296875 72.90625 59 68.0625 
Q 65.71875 63.234375 65.71875 52.78125 
Q 65.71875 45.5625 62.21875 40.921875 
Q 58.734375 36.28125 51.703125 34.078125 
Q 55.5625 33.203125 58.609375 30.09375 
Q 61.671875 27 64.796875 20.703125 
L 75 0 
L 54.984375 0 
L 46.09375 18.109375 
Q 43.40625 23.578125 40.640625 25.578125 
Q 37.890625 27.59375 33.296875 27.59375 
z
" id="DejaVuSans-Bold-82"/>
     <path d="M 25.875 7.90625 
L 25.875 -20.796875 
L 8.40625 -20.796875 
L 8.40625 54.6875 
L 25.875 54.6875 
L 25.875 46.6875 
Q 29.5 51.46875 33.890625 53.734375 
Q 38.28125 56 44 56 
Q 54.109375 56 60.59375 47.96875 
Q 67.09375 39.9375 67.09375 27.296875 
Q 67.09375 14.65625 60.59375 6.609375 
Q 54.109375 -1.421875 44 -1.421875 
Q 38.28125 -1.421875 33.890625 0.84375 
Q 29.5 3.125 25.875 7.90625 
z
M 37.5 43.3125 
Q 31.890625 43.3125 28.875 39.1875 
Q 25.875 35.0625 25.875 27.296875 
Q 25.875 19.53125 28.875 15.40625 
Q 31.890625 11.28125 37.5 11.28125 
Q 43.109375 11.28125 46.0625 15.375 
Q 49.03125 19.484375 49.03125 27.296875 
Q 49.03125 35.109375 46.0625 39.203125 
Q 43.109375 43.3125 37.5 43.3125 
z
" id="DejaVuSans-Bold-112"/>
     <path d="M 8.40625 54.6875 
L 25.875 54.6875 
L 25.875 0.984375 
Q 25.875 -10.015625 20.59375 -15.796875 
Q 15.328125 -21.578125 5.328125 -21.578125 
L -3.328125 -21.578125 
L -3.328125 -10.109375 
L -0.296875 -10.109375 
Q 4.6875 -10.109375 6.546875 -7.859375 
Q 8.40625 -5.609375 8.40625 0.984375 
z
M 8.40625 75.984375 
L 25.875 75.984375 
L 25.875 61.71875 
L 8.40625 61.71875 
z
" id="DejaVuSans-Bold-106"/>
     <path d="M 52.59375 52.984375 
L 52.59375 38.71875 
Q 49.03125 41.15625 45.4375 42.328125 
Q 41.84375 43.5 37.984375 43.5 
Q 30.671875 43.5 26.59375 39.234375 
Q 22.515625 34.96875 22.515625 27.296875 
Q 22.515625 19.625 26.59375 15.34375 
Q 30.671875 11.078125 37.984375 11.078125 
Q 42.09375 11.078125 45.78125 12.296875 
Q 49.46875 13.53125 52.59375 15.921875 
L 52.59375 1.609375 
Q 48.484375 0.09375 44.265625 -0.65625 
Q 40.046875 -1.421875 35.796875 -1.421875 
Q 21 -1.421875 12.640625 6.171875 
Q 4.296875 13.765625 4.296875 27.296875 
Q 4.296875 40.828125 12.640625 48.40625 
Q 21 56 35.796875 56 
Q 40.09375 56 44.265625 55.25 
Q 48.4375 54.5 52.59375 52.984375 
z
" id="DejaVuSans-Bold-99"/>
     <path d="M 9.1875 72.90625 
L 59.90625 72.90625 
L 59.90625 58.6875 
L 27.984375 58.6875 
L 27.984375 45.125 
L 58.015625 45.125 
L 58.015625 30.90625 
L 27.984375 30.90625 
L 27.984375 14.203125 
L 60.984375 14.203125 
L 60.984375 0 
L 9.1875 0 
z
" id="DejaVuSans-Bold-69"/>
    </defs>
    <g transform="translate(980.110824 114.264375)scale(0.12 -0.12)">
     <use xlink:href="#DejaVuSans-Bold-82"/>
     <use x="77.001953" xlink:href="#DejaVuSans-Bold-101"/>
     <use x="144.824219" xlink:href="#DejaVuSans-Bold-112"/>
     <use x="216.40625" xlink:href="#DejaVuSans-Bold-114"/>
     <use x="265.722656" xlink:href="#DejaVuSans-Bold-111"/>
     <use x="334.423828" xlink:href="#DejaVuSans-Bold-106"/>
     <use x="368.701172" xlink:href="#DejaVuSans-Bold-101"/>
     <use x="436.523438" xlink:href="#DejaVuSans-Bold-99"/>
     <use x="495.800781" xlink:href="#DejaVuSans-Bold-116"/>
     <use x="543.603516" xlink:href="#DejaVuSans-Bold-105"/>
     <use x="577.880859" xlink:href="#DejaVuSans-Bold-111"/>
     <use x="646.582031" xlink:href="#DejaVuSans-Bold-110"/>
     <use x="717.773438" xlink:href="#DejaVuSans-Bold-32"/>
     <use x="752.587891" xlink:href="#DejaVuSans-Bold-69"/>
     <use x="820.898438" xlink:href="#DejaVuSans-Bold-114"/>
     <use x="870.214844" xlink:href="#DejaVuSans-Bold-114"/>
     <use x="919.53125" xlink:href="#DejaVuSans-Bold-111"/>
     <use x="988.232422" xlink:href="#DejaVuSans-Bold-114"/>
    </g>
   </g>
  </g>
  <g id="legend_1">
   <g id="patch_6">
    <path d="M 560.653125 52.034375 
L 879.346875 52.034375 
Q 881.346875 52.034375 881.346875 50.034375 
L 881.346875 7 
Q 881.346875 5 879.346875 5 
L 560.653125 5 
Q 558.653125 5 558.653125 7 
L 558.653125 50.034375 
Q 558.653125 52.034375 560.653125 52.034375 
z
" style="fill:#ffffff;opacity:0.8;stroke:#cccccc;stroke-linejoin:miter;"/>
   </g>
   <g id="line2d_40">
    <path d="M 562.653125 13.098437 
L 582.653125 13.098437 
" style="fill:none;stroke:#1f77b4;stroke-linecap:square;stroke-width:1.5;"/>
   </g>
   <g id="line2d_41">
    <g>
     <use style="fill:#1f77b4;stroke:#1f77b4;" x="572.653125" xlink:href="#m875f5d0c52" y="13.098437"/>
    </g>
   </g>
   <g id="text_24">
    <!-- FAST - DAISY -->
    <defs>
     <path d="M 9.8125 72.90625 
L 51.703125 72.90625 
L 51.703125 64.59375 
L 19.671875 64.59375 
L 19.671875 43.109375 
L 48.578125 43.109375 
L 48.578125 34.8125 
L 19.671875 34.8125 
L 19.671875 0 
L 9.8125 0 
z
" id="DejaVuSans-70"/>
     <path d="M 34.1875 63.1875 
L 20.796875 26.90625 
L 47.609375 26.90625 
z
M 28.609375 72.90625 
L 39.796875 72.90625 
L 67.578125 0 
L 57.328125 0 
L 50.6875 18.703125 
L 17.828125 18.703125 
L 11.1875 0 
L 0.78125 0 
z
" id="DejaVuSans-65"/>
     <path d="M 53.515625 70.515625 
L 53.515625 60.890625 
Q 47.90625 63.578125 42.921875 64.890625 
Q 37.9375 66.21875 33.296875 66.21875 
Q 25.25 66.21875 20.875 63.09375 
Q 16.5 59.96875 16.5 54.203125 
Q 16.5 49.359375 19.40625 46.890625 
Q 22.3125 44.4375 30.421875 42.921875 
L 36.375 41.703125 
Q 47.40625 39.59375 52.65625 34.296875 
Q 57.90625 29 57.90625 20.125 
Q 57.90625 9.515625 50.796875 4.046875 
Q 43.703125 -1.421875 29.984375 -1.421875 
Q 24.8125 -1.421875 18.96875 -0.25 
Q 13.140625 0.921875 6.890625 3.21875 
L 6.890625 13.375 
Q 12.890625 10.015625 18.65625 8.296875 
Q 24.421875 6.59375 29.984375 6.59375 
Q 38.421875 6.59375 43.015625 9.90625 
Q 47.609375 13.234375 47.609375 19.390625 
Q 47.609375 24.75 44.3125 27.78125 
Q 41.015625 30.8125 33.5 32.328125 
L 27.484375 33.5 
Q 16.453125 35.6875 11.515625 40.375 
Q 6.59375 45.0625 6.59375 53.421875 
Q 6.59375 63.09375 13.40625 68.65625 
Q 20.21875 74.21875 32.171875 74.21875 
Q 37.3125 74.21875 42.625 73.28125 
Q 47.953125 72.359375 53.515625 70.515625 
z
" id="DejaVuSans-83"/>
     <path d="M -0.296875 72.90625 
L 61.375 72.90625 
L 61.375 64.59375 
L 35.5 64.59375 
L 35.5 0 
L 25.59375 0 
L 25.59375 64.59375 
L -0.296875 64.59375 
z
" id="DejaVuSans-84"/>
     <path id="DejaVuSans-32"/>
     <path d="M 19.671875 64.796875 
L 19.671875 8.109375 
L 31.59375 8.109375 
Q 46.6875 8.109375 53.6875 14.9375 
Q 60.6875 21.78125 60.6875 36.53125 
Q 60.6875 51.171875 53.6875 57.984375 
Q 46.6875 64.796875 31.59375 64.796875 
z
M 9.8125 72.90625 
L 30.078125 72.90625 
Q 51.265625 72.90625 61.171875 64.09375 
Q 71.09375 55.28125 71.09375 36.53125 
Q 71.09375 17.671875 61.125 8.828125 
Q 51.171875 0 30.078125 0 
L 9.8125 0 
z
" id="DejaVuSans-68"/>
     <path d="M 9.8125 72.90625 
L 19.671875 72.90625 
L 19.671875 0 
L 9.8125 0 
z
" id="DejaVuSans-73"/>
     <path d="M -0.203125 72.90625 
L 10.40625 72.90625 
L 30.609375 42.921875 
L 50.6875 72.90625 
L 61.28125 72.90625 
L 35.5 34.71875 
L 35.5 0 
L 25.59375 0 
L 25.59375 34.71875 
z
" id="DejaVuSans-89"/>
    </defs>
    <g transform="translate(590.653125 16.598437)scale(0.1 -0.1)">
     <use xlink:href="#DejaVuSans-70"/>
     <use x="48.394531" xlink:href="#DejaVuSans-65"/>
     <use x="116.802734" xlink:href="#DejaVuSans-83"/>
     <use x="180.279297" xlink:href="#DejaVuSans-84"/>
     <use x="241.363281" xlink:href="#DejaVuSans-32"/>
     <use x="273.150391" xlink:href="#DejaVuSans-45"/>
     <use x="309.234375" xlink:href="#DejaVuSans-32"/>
     <use x="341.021484" xlink:href="#DejaVuSans-68"/>
     <use x="416.273438" xlink:href="#DejaVuSans-65"/>
     <use x="484.681641" xlink:href="#DejaVuSans-73"/>
     <use x="514.173828" xlink:href="#DejaVuSans-83"/>
     <use x="577.650391" xlink:href="#DejaVuSans-89"/>
    </g>
   </g>
   <g id="line2d_42">
    <path d="M 562.653125 27.776562 
L 582.653125 27.776562 
" style="fill:none;stroke:#aec7e8;stroke-linecap:square;stroke-width:1.5;"/>
   </g>
   <g id="line2d_43">
    <g>
     <use style="fill:#aec7e8;stroke:#aec7e8;stroke-linejoin:miter;" x="572.653125" xlink:href="#m2ea87b1212" y="27.776562"/>
    </g>
   </g>
   <g id="text_25">
    <!-- FAST - SIFT -->
    <g transform="translate(590.653125 31.276562)scale(0.1 -0.1)">
     <use xlink:href="#DejaVuSans-70"/>
     <use x="48.394531" xlink:href="#DejaVuSans-65"/>
     <use x="116.802734" xlink:href="#DejaVuSans-83"/>
     <use x="180.279297" xlink:href="#DejaVuSans-84"/>
     <use x="241.363281" xlink:href="#DejaVuSans-32"/>
     <use x="273.150391" xlink:href="#DejaVuSans-45"/>
     <use x="309.234375" xlink:href="#DejaVuSans-32"/>
     <use x="341.021484" xlink:href="#DejaVuSans-83"/>
     <use x="404.498047" xlink:href="#DejaVuSans-73"/>
     <use x="433.990234" xlink:href="#DejaVuSans-70"/>
     <use x="489.759766" xlink:href="#DejaVuSans-84"/>
    </g>
   </g>
   <g id="line2d_44">
    <path d="M 562.653125 42.454687 
L 582.653125 42.454687 
" style="fill:none;stroke:#ff7f0e;stroke-linecap:square;stroke-width:1.5;"/>
   </g>
   <g id="line2d_45">
    <g>
     <use style="fill:#ff7f0e;stroke:#ff7f0e;stroke-linejoin:miter;" x="572.653125" xlink:href="#mb5083107cb" y="42.454687"/>
    </g>
   </g>
   <g id="text_26">
    <!-- FAST - SURF -->
    <defs>
     <path d="M 8.6875 72.90625 
L 18.609375 72.90625 
L 18.609375 28.609375 
Q 18.609375 16.890625 22.84375 11.734375 
Q 27.09375 6.59375 36.625 6.59375 
Q 46.09375 6.59375 50.34375 11.734375 
Q 54.59375 16.890625 54.59375 28.609375 
L 54.59375 72.90625 
L 64.5 72.90625 
L 64.5 27.390625 
Q 64.5 13.140625 57.4375 5.859375 
Q 50.390625 -1.421875 36.625 -1.421875 
Q 22.796875 -1.421875 15.734375 5.859375 
Q 8.6875 13.140625 8.6875 27.390625 
z
" id="DejaVuSans-85"/>
     <path d="M 44.390625 34.1875 
Q 47.5625 33.109375 50.5625 29.59375 
Q 53.5625 26.078125 56.59375 19.921875 
L 66.609375 0 
L 56 0 
L 46.6875 18.703125 
Q 43.0625 26.03125 39.671875 28.421875 
Q 36.28125 30.8125 30.421875 30.8125 
L 19.671875 30.8125 
L 19.671875 0 
L 9.8125 0 
L 9.8125 72.90625 
L 32.078125 72.90625 
Q 44.578125 72.90625 50.734375 67.671875 
Q 56.890625 62.453125 56.890625 51.90625 
Q 56.890625 45.015625 53.6875 40.46875 
Q 50.484375 35.9375 44.390625 34.1875 
z
M 19.671875 64.796875 
L 19.671875 38.921875 
L 32.078125 38.921875 
Q 39.203125 38.921875 42.84375 42.21875 
Q 46.484375 45.515625 46.484375 51.90625 
Q 46.484375 58.296875 42.84375 61.546875 
Q 39.203125 64.796875 32.078125 64.796875 
z
" id="DejaVuSans-82"/>
    </defs>
    <g transform="translate(590.653125 45.954687)scale(0.1 -0.1)">
     <use xlink:href="#DejaVuSans-70"/>
     <use x="48.394531" xlink:href="#DejaVuSans-65"/>
     <use x="116.802734" xlink:href="#DejaVuSans-83"/>
     <use x="180.279297" xlink:href="#DejaVuSans-84"/>
     <use x="241.363281" xlink:href="#DejaVuSans-32"/>
     <use x="273.150391" xlink:href="#DejaVuSans-45"/>
     <use x="309.234375" xlink:href="#DejaVuSans-32"/>
     <use x="341.021484" xlink:href="#DejaVuSans-83"/>
     <use x="404.498047" xlink:href="#DejaVuSans-85"/>
     <use x="477.691406" xlink:href="#DejaVuSans-82"/>
     <use x="547.173828" xlink:href="#DejaVuSans-70"/>
    </g>
   </g>
   <g id="line2d_46">
    <path d="M 674.525 13.098437 
L 694.525 13.098437 
" style="fill:none;stroke:#ffbb78;stroke-linecap:square;stroke-width:1.5;"/>
   </g>
   <g id="line2d_47">
    <g>
     <use style="fill:#ffbb78;stroke:#ffbb78;stroke-linejoin:miter;" x="684.525" xlink:href="#m293c049ab0" y="13.098437"/>
    </g>
   </g>
   <g id="text_27">
    <!-- SIFT - DAISY -->
    <g transform="translate(702.525 16.598437)scale(0.1 -0.1)">
     <use xlink:href="#DejaVuSans-83"/>
     <use x="63.476562" xlink:href="#DejaVuSans-73"/>
     <use x="92.96875" xlink:href="#DejaVuSans-70"/>
     <use x="148.738281" xlink:href="#DejaVuSans-84"/>
     <use x="209.822266" xlink:href="#DejaVuSans-32"/>
     <use x="241.609375" xlink:href="#DejaVuSans-45"/>
     <use x="277.693359" xlink:href="#DejaVuSans-32"/>
     <use x="309.480469" xlink:href="#DejaVuSans-68"/>
     <use x="384.732422" xlink:href="#DejaVuSans-65"/>
     <use x="453.140625" xlink:href="#DejaVuSans-73"/>
     <use x="482.632812" xlink:href="#DejaVuSans-83"/>
     <use x="546.109375" xlink:href="#DejaVuSans-89"/>
    </g>
   </g>
   <g id="line2d_48">
    <path d="M 674.525 27.776562 
L 694.525 27.776562 
" style="fill:none;stroke:#2ca02c;stroke-linecap:square;stroke-width:1.5;"/>
   </g>
   <g id="line2d_49">
    <g>
     <use style="fill:#2ca02c;stroke:#2ca02c;stroke-linejoin:miter;" x="684.525" xlink:href="#mcde4d53177" y="27.776562"/>
    </g>
   </g>
   <g id="text_28">
    <!-- SIFT - SIFT -->
    <g transform="translate(702.525 31.276562)scale(0.1 -0.1)">
     <use xlink:href="#DejaVuSans-83"/>
     <use x="63.476562" xlink:href="#DejaVuSans-73"/>
     <use x="92.96875" xlink:href="#DejaVuSans-70"/>
     <use x="148.738281" xlink:href="#DejaVuSans-84"/>
     <use x="209.822266" xlink:href="#DejaVuSans-32"/>
     <use x="241.609375" xlink:href="#DejaVuSans-45"/>
     <use x="277.693359" xlink:href="#DejaVuSans-32"/>
     <use x="309.480469" xlink:href="#DejaVuSans-83"/>
     <use x="372.957031" xlink:href="#DejaVuSans-73"/>
     <use x="402.449219" xlink:href="#DejaVuSans-70"/>
     <use x="458.21875" xlink:href="#DejaVuSans-84"/>
    </g>
   </g>
   <g id="line2d_50">
    <path d="M 674.525 42.454687 
L 694.525 42.454687 
" style="fill:none;stroke:#98df8a;stroke-linecap:square;stroke-width:1.5;"/>
   </g>
   <g id="line2d_51">
    <g>
     <use style="fill:#98df8a;stroke:#98df8a;stroke-linejoin:miter;" x="684.525" xlink:href="#m8cf51be091" y="42.454687"/>
    </g>
   </g>
   <g id="text_29">
    <!-- SIFT - SURF -->
    <g transform="translate(702.525 45.954687)scale(0.1 -0.1)">
     <use xlink:href="#DejaVuSans-83"/>
     <use x="63.476562" xlink:href="#DejaVuSans-73"/>
     <use x="92.96875" xlink:href="#DejaVuSans-70"/>
     <use x="148.738281" xlink:href="#DejaVuSans-84"/>
     <use x="209.822266" xlink:href="#DejaVuSans-32"/>
     <use x="241.609375" xlink:href="#DejaVuSans-45"/>
     <use x="277.693359" xlink:href="#DejaVuSans-32"/>
     <use x="309.480469" xlink:href="#DejaVuSans-83"/>
     <use x="372.957031" xlink:href="#DejaVuSans-85"/>
     <use x="446.150391" xlink:href="#DejaVuSans-82"/>
     <use x="515.632812" xlink:href="#DejaVuSans-70"/>
    </g>
   </g>
   <g id="line2d_52">
    <path d="M 783.24375 13.098437 
L 803.24375 13.098437 
" style="fill:none;stroke:#d62728;stroke-linecap:square;stroke-width:1.5;"/>
   </g>
   <g id="line2d_53">
    <g>
     <use style="fill:#d62728;stroke:#d62728;" x="793.24375" xlink:href="#m78efb23c66" y="13.098437"/>
    </g>
   </g>
   <g id="text_30">
    <!-- SURF - DAISY -->
    <g transform="translate(811.24375 16.598437)scale(0.1 -0.1)">
     <use xlink:href="#DejaVuSans-83"/>
     <use x="63.476562" xlink:href="#DejaVuSans-85"/>
     <use x="136.669922" xlink:href="#DejaVuSans-82"/>
     <use x="206.152344" xlink:href="#DejaVuSans-70"/>
     <use x="263.671875" xlink:href="#DejaVuSans-32"/>
     <use x="295.458984" xlink:href="#DejaVuSans-45"/>
     <use x="331.542969" xlink:href="#DejaVuSans-32"/>
     <use x="363.330078" xlink:href="#DejaVuSans-68"/>
     <use x="438.582031" xlink:href="#DejaVuSans-65"/>
     <use x="506.990234" xlink:href="#DejaVuSans-73"/>
     <use x="536.482422" xlink:href="#DejaVuSans-83"/>
     <use x="599.958984" xlink:href="#DejaVuSans-89"/>
    </g>
   </g>
   <g id="line2d_54">
    <path d="M 783.24375 27.776562 
L 803.24375 27.776562 
" style="fill:none;stroke:#ff9896;stroke-linecap:square;stroke-width:1.5;"/>
   </g>
   <g id="line2d_55">
    <g>
     <use style="fill:#ff9896;stroke:#ff9896;" x="793.24375" xlink:href="#m2cff92f6b7" y="27.776562"/>
    </g>
   </g>
   <g id="text_31">
    <!-- SURF - SIFT -->
    <g transform="translate(811.24375 31.276562)scale(0.1 -0.1)">
     <use xlink:href="#DejaVuSans-83"/>
     <use x="63.476562" xlink:href="#DejaVuSans-85"/>
     <use x="136.669922" xlink:href="#DejaVuSans-82"/>
     <use x="206.152344" xlink:href="#DejaVuSans-70"/>
     <use x="263.671875" xlink:href="#DejaVuSans-32"/>
     <use x="295.458984" xlink:href="#DejaVuSans-45"/>
     <use x="331.542969" xlink:href="#DejaVuSans-32"/>
     <use x="363.330078" xlink:href="#DejaVuSans-83"/>
     <use x="426.806641" xlink:href="#DejaVuSans-73"/>
     <use x="456.298828" xlink:href="#DejaVuSans-70"/>
     <use x="512.068359" xlink:href="#DejaVuSans-84"/>
    </g>
   </g>
   <g id="line2d_56">
    <path d="M 783.24375 42.454687 
L 803.24375 42.454687 
" style="fill:none;stroke:#9467bd;stroke-linecap:square;stroke-width:1.5;"/>
   </g>
   <g id="line2d_57">
    <g>
     <use style="fill:#9467bd;stroke:#9467bd;stroke-linejoin:miter;" x="793.24375" xlink:href="#m6631247430" y="42.454687"/>
    </g>
   </g>
   <g id="text_32">
    <!-- SURF - SURF -->
    <g transform="translate(811.24375 45.954687)scale(0.1 -0.1)">
     <use xlink:href="#DejaVuSans-83"/>
     <use x="63.476562" xlink:href="#DejaVuSans-85"/>
     <use x="136.669922" xlink:href="#DejaVuSans-82"/>
     <use x="206.152344" xlink:href="#DejaVuSans-70"/>
     <use x="263.671875" xlink:href="#DejaVuSans-32"/>
     <use x="295.458984" xlink:href="#DejaVuSans-45"/>
     <use x="331.542969" xlink:href="#DejaVuSans-32"/>
     <use x="363.330078" xlink:href="#DejaVuSans-83"/>
     <use x="426.806641" xlink:href="#DejaVuSans-85"/>
     <use x="500" xlink:href="#DejaVuSans-82"/>
     <use x="569.482422" xlink:href="#DejaVuSans-70"/>
    </g>
   </g>
  </g>
 </g>
 <defs>
  <clipPath id="pae75a3b60c">
   <path d="M 433.636364 142.363636 
L 213.980829 269.181818 
L 213.980829 522.818182 
L 433.636364 649.636364 
L 653.291898 522.818182 
L 653.291898 269.181818 
z
"/>
  </clipPath>
  <clipPath id="pe1c9526f51">
   <path d="M 1042.363636 142.363636 
L 822.708102 269.181818 
L 822.708102 522.818182 
L 1042.363636 649.636364 
L 1262.019171 522.818182 
L 1262.019171 269.181818 
z
"/>
  </clipPath>
 </defs>
</svg>
